<svg width="40" height="28" viewBox="0 0 40 28" fill="none" xmlns="http://www.w3.org/2000/svg">
  <path d="M0.801228 23.3386C0.801266 22.2911 0.80051 21.2978 0.801643 20.3044C0.802452 19.5953 1.0495 19.2831 1.71065 19.1122C3.79628 18.5731 5.15302 17.2823 5.6993 15.185C6.38561 12.5502 4.60749 9.59731 1.94279 8.92222C0.911602 8.66098 0.801266 8.51845 0.801281 7.44783C0.801292 5.73207 0.800869 4.01631 0.801434 2.30055C0.801842 1.02165 1.46556 0.347497 2.75431 0.346924C10.99 0.343272 19.2256 0.34436 27.4612 0.344154C30.676 0.344073 33.8917 0.387813 37.1052 0.325049C38.5125 0.297561 39.2551 1.24062 39.1968 2.44462C39.1156 4.12032 39.1762 5.8029 39.1763 7.48254C39.1764 8.49288 39.0234 8.65719 38.0451 8.92243C35.936 9.49427 34.6062 10.8424 34.1832 12.9994C33.6763 15.5837 35.2451 18.1079 37.7979 18.8897C38.0025 18.9524 38.217 18.9834 38.4202 19.0495C38.9144 19.2103 39.1875 19.5164 39.1827 20.0786C39.1661 21.9929 39.1774 23.9074 39.1759 25.8219C39.1751 26.9531 38.4579 27.6744 37.3315 27.6745C28.3553 27.6754 19.3792 27.6751 10.4031 27.6752C7.80234 27.6752 5.20161 27.6761 2.60088 27.6746C1.54854 27.674 0.807831 26.9376 0.8022 25.8851C0.79776 25.0544 0.801258 24.2236 0.801228 23.3386ZM19.013 11.889C19.013 12.0453 19.013 12.2016 19.013 12.39C17.4823 12.39 16.0051 12.3879 14.5279 12.3908C13.5703 12.3927 12.919 13.0316 12.9214 13.9577C12.9237 14.867 13.5953 15.5276 14.5387 15.5319C15.893 15.538 17.2474 15.5327 18.6017 15.5351C18.7373 15.5354 18.8729 15.5553 19.013 15.5665C19.013 17.073 19.0109 18.5354 19.0138 19.9979C19.0156 20.8884 19.6049 21.4971 20.4707 21.5125C21.3458 21.528 22.0204 20.9005 22.0386 20.0239C22.0551 19.2297 22.0418 18.4349 22.0418 17.6403C22.0417 16.9451 22.0418 16.2499 22.0418 15.5335C23.599 15.5335 25.096 15.5451 26.5927 15.5291C27.4772 15.5197 28.1269 14.8196 28.1221 13.9323C28.1174 13.0772 27.4613 12.4131 26.5935 12.3911C26.3048 12.3838 26.0157 12.39 25.7268 12.39C24.5052 12.3899 23.2837 12.39 22.0447 12.39C22.0447 10.8707 22.0479 9.41061 22.0435 7.95058C22.0407 7.03118 21.3644 6.33965 20.4997 6.35869C19.6369 6.3777 19.0153 7.03475 19.0136 7.93643C19.0113 9.21854 19.013 10.5007 19.013 11.889Z" fill="currentColor"/>
</svg>
