<svg width="38" height="40" viewBox="0 0 38 40" fill="none" xmlns="http://www.w3.org/2000/svg">
<path fill-rule="evenodd" clip-rule="evenodd" d="M10.9877 26.308L10.9869 26.3079L10.9859 26.3079C8.7935 26.2611 6.63957 26.2152 4.48544 26.1844C1.89811 26.1475 0.395273 24.6645 0.387465 22.0882C0.3809 19.9223 0.379855 17.7564 0.391106 15.5905C0.401983 13.4955 1.97488 11.9049 4.07105 11.8942C6.77834 11.8804 9.48592 11.8862 12.1931 11.913C12.8308 11.9193 13.3672 11.7548 13.8803 11.385C17.2114 8.98403 20.5495 6.59263 23.8908 4.20587C24.3513 3.87691 24.6363 3.52061 24.703 2.89976C24.8481 1.54812 26.0033 0.713668 27.4301 0.807169C28.7731 0.89518 29.7684 1.88292 29.7698 3.22677C29.7805 13.7059 29.7806 24.1851 29.7689 34.6643C29.7675 35.9625 28.7295 36.9565 27.3761 37.0563C26.1236 37.1486 24.8634 36.1672 24.7225 34.8167C24.6487 34.1092 24.3252 33.7576 23.7951 33.3968C21.5263 31.8526 19.2672 30.2941 17.0081 28.7356L17.0077 28.7352L17.0037 28.7325C16.1204 28.1231 15.2371 27.5138 14.3532 26.9053L14.2822 26.8562C13.913 26.6003 13.5387 26.341 12.9747 26.35C12.3082 26.3361 11.6462 26.322 10.9877 26.308ZM13.1139 29.5477C14.0245 32.0033 14.754 34.4356 15.3319 36.9125C15.6524 38.2862 15.2912 38.7884 13.9477 39.0265C12.7452 39.2396 11.5374 39.2089 10.3315 39.1783C10.1078 39.1727 9.88423 39.167 9.66073 39.1629C8.68636 39.1449 8.00046 38.5906 7.60065 37.7011C6.3048 34.8179 5.71356 31.787 5.6836 28.6342C5.6789 28.1383 5.97013 28.0355 6.34917 28.0299L6.8252 28.0229C8.51305 27.9979 10.201 27.9729 11.889 27.975C12.5799 27.9759 12.7235 28.4452 12.8744 28.9387C12.9387 29.1487 13.0042 29.3631 13.1139 29.5477ZM37.56 19.6633C37.8742 17.8127 36.9445 14.8751 33.7376 13.8019C33.6897 13.7895 33.6428 13.7774 33.5968 13.7655C33.2472 13.6751 32.9487 13.598 32.6522 13.5135C32.0645 13.3461 31.7444 13.4907 31.7471 14.1747C31.755 16.1304 31.7555 18.0861 31.7561 20.0417C31.7565 21.3637 31.7568 22.6856 31.7595 24.0075C31.7597 24.1111 31.7896 24.2147 31.8187 24.3152C31.832 24.3611 31.8451 24.4064 31.8551 24.4508C34.6704 24.5085 37.076 22.5149 37.56 19.6633Z" fill="currentColor"/>
</svg>
