<svg width="20" height="21" viewBox="0 0 20 21" fill="none" xmlns="http://www.w3.org/2000/svg" aria-hidden="true">
  <path d="M17.5235 10.7618C17.5235 12.2969 17.0683 13.7976 16.2154 15.074C15.3626 16.3504 14.1503 17.3452 12.7321 17.9327C11.3138 18.5202 9.75316 18.6739 8.24752 18.3744C6.74189 18.0749 5.35887 17.3357 4.27337 16.2502C3.18787 15.1647 2.44863 13.7816 2.14914 12.276C1.84965 10.7704 2.00336 9.20974 2.59083 7.79147C3.1783 6.37319 4.17315 5.16097 5.44956 4.30809C6.72598 3.45522 8.22664 3 9.76177 3C10.7811 2.99987 11.7905 3.20055 12.7322 3.59057C13.674 3.98059 14.5297 4.55231 15.2505 5.27308C15.9712 5.99385 16.5429 6.84956 16.933 7.79131C17.323 8.73307 17.5237 9.74244 17.5235 10.7618ZM13.499 6.35196C13.4107 6.30084 13.3132 6.26763 13.2121 6.25425C13.111 6.24087 13.0082 6.24758 12.9096 6.27399C12.8111 6.3004 12.7187 6.346 12.6378 6.40817C12.557 6.47033 12.4891 6.54785 12.4382 6.63627L8.6853 13.1363L6.98628 11.0971C6.921 11.0188 6.84095 10.9541 6.75069 10.9068C6.66043 10.8594 6.56172 10.8303 6.46022 10.8212C6.35871 10.812 6.25639 10.8228 6.15909 10.8532C6.06179 10.8835 5.97142 10.9328 5.89314 10.998C5.81486 11.0633 5.75021 11.1434 5.70287 11.2336C5.65553 11.3239 5.62643 11.4226 5.61723 11.5241C5.59867 11.7291 5.66229 11.9331 5.79412 12.0912L8.20491 14.9853C8.27773 15.0727 8.36886 15.143 8.47187 15.1913C8.57487 15.2396 8.68723 15.2646 8.80098 15.2647C8.82324 15.2646 8.84548 15.2637 8.86765 15.2618C8.99222 15.2511 9.11237 15.2106 9.21787 15.1435C9.32337 15.0764 9.41108 14.9848 9.47353 14.8765L13.7814 7.41177C13.8323 7.32352 13.8654 7.2261 13.8787 7.12506C13.892 7.02403 13.8853 6.92136 13.8589 6.82294C13.8325 6.72451 13.7869 6.63225 13.7248 6.55144C13.6628 6.47063 13.5854 6.40284 13.4971 6.35196H13.499Z" fill="currentColor"/>
</svg>