<svg width="1em" height="1em" viewBox="0 0 200 200" fill="none" xmlns="http://www.w3.org/2000/svg">
  <path d="M17.0646 89.3904C24.6651 85.6181 29.2671 86.3442 34.9343 91.9376C48.2049 105.035 61.4793 118.129 74.7626 131.235C87.8714 118.239 101.25 105.046 114.548 91.7737C131.524 74.8309 148.391 57.7786 165.402 40.8714C170.509 35.7954 178.596 35.7705 183.436 40.4464C188.447 45.2872 188.528 53.5019 183.236 58.811C150.193 91.9598 117.098 125.056 83.9581 158.108C78.4323 163.619 70.775 163.59 65.2268 158.082C48.7958 141.771 32.4253 125.399 16.1253 108.957C10.3062 103.087 10.665 95.8879 17.0646 89.3904Z" fill="currentColor"/>
</svg>
