<svg width="21" height="20" viewBox="0 0 21 20" fill="none" xmlns="http://www.w3.org/2000/svg">
  <path d="M17.3268 14.2534C18.0264 14.9443 18.6417 15.0497 19.1234 14.5828C19.6137 14.1077 19.5071 13.4673 18.8197 12.7795C16.4269 10.3854 14.0337 7.99151 11.6397 5.59845C10.8363 4.79538 10.3427 4.8006 9.53093 5.61206C7.13701 8.0051 4.74287 10.3979 2.34741 12.7894C2.16222 12.9743 1.98493 13.1625 1.87092 13.4021C1.66986 13.8247 1.71557 14.2259 2.03783 14.5564C2.37294 14.9001 2.78607 14.9717 3.23205 14.7646C3.45723 14.66 3.62657 14.4854 3.79881 14.3131C5.93372 12.1768 8.06951 10.0414 10.2058 7.90653C10.3151 7.79738 10.4313 7.6952 10.6022 7.53564C12.8429 9.77416 15.0717 12.0007 17.3268 14.2534Z" fill="currentColor"/>
</svg>