<svg width="4.3rem" height="3.2rem" viewBox="0 0 43 32" fill="none" xmlns="http://www.w3.org/2000/svg">
  <path d="M32.8581 31.1878C23.7575 31.1894 14.7692 31.1987 5.78096 31.1886C2.50872 31.1849 0.872888 29.5299 0.871447 26.2894C0.871228 25.8026 0.871228 25.3157 0.871132 24.8288C0.870981 24.0049 0.870858 23.181 0.870652 22.357C0.870172 20.4743 0.870158 20.4743 2.65695 19.99C4.507 19.4886 5.81728 17.822 5.82209 15.964C5.82743 13.9051 4.69288 12.4229 2.67647 11.8544C0.872202 11.3457 0.8719 11.3457 0.870912 9.45179C0.870158 8.02865 0.863627 6.60547 0.871585 5.18237C0.88577 2.64909 2.49918 0.946397 5.03335 0.823103C5.96745 0.777658 6.9055 0.812717 7.84175 0.812628C17.579 0.811743 27.3163 0.810241 37.0536 0.811023C40.7667 0.811318 42.367 2.42661 42.3621 6.15909C42.3603 7.50733 42.3459 8.8558 42.3664 10.2037C42.3796 11.0767 42.0866 11.5567 41.1333 11.7331C38.7531 12.1735 37.3962 13.7829 37.423 15.9516C37.4496 18.0902 38.8291 19.5986 41.239 20.0807C41.9782 20.2285 42.3603 20.6237 42.3594 21.3803C42.3574 23.2903 42.425 25.2034 42.3367 27.1094C42.2258 29.5027 40.3428 31.1167 37.6891 31.1809C36.1171 31.2189 34.5435 31.1879 32.8581 31.1878ZM20.4982 10.8005C20.696 8.45036 18.4913 6.59108 16.7495 6.49824C14.3284 6.36922 12.3895 7.99397 12.2186 10.3432C12.0381 12.825 13.753 14.9085 16.1384 15.1052C18.2639 15.2806 20.24 13.4167 20.4982 10.8005ZM28.5844 24.8028C28.9396 24.5981 29.3186 24.4256 29.6458 24.1831C30.9905 23.1866 31.6276 21.1823 31.143 19.5516C30.6605 17.9277 29.1983 16.7012 27.5807 16.5565C25.7477 16.3926 24.3654 17.1433 23.4686 18.7076C22.5385 20.3301 22.7014 21.9685 23.821 23.4221C24.984 24.9322 26.563 25.4082 28.5844 24.8028ZM16.355 21.5025C16.1693 21.7829 15.9658 22.0532 15.8016 22.3457C15.4574 22.9585 15.5587 23.5272 16.1267 23.9263C16.678 24.3135 17.2633 24.2592 17.7603 23.7827C17.9464 23.6043 18.0844 23.3734 18.2329 23.1586C20.1461 20.3918 22.0605 17.6258 23.9679 14.855C25.1759 13.1001 26.3835 11.3447 27.5691 9.57476C28.0006 8.93064 27.9852 8.26668 27.2992 7.80623C26.637 7.36168 26.0182 7.53164 25.5304 8.15529C25.4156 8.30202 25.3214 8.46464 25.2155 8.61849C22.2931 12.8681 19.3703 17.1175 16.355 21.5025Z" fill="currentColor"/>
</svg>