<svg width="3rem" height="2.4rem" viewBox="0 0 30 24" fill="none" xmlns="http://www.w3.org/2000/svg">
  <path d="M27.1799 18.6713C27.1799 20.3518 25.8136 21.7181 24.1331 21.7181H5.85181C4.17129 21.7181 2.80493 20.3518 2.80493 18.6713V8.76892L13.1643 16.5385C14.2497 17.3525 15.7351 17.3525 16.8206 16.5385L27.1799 8.76892V18.6713ZM24.8948 2.26501C26.1564 2.26501 27.1799 3.28857 27.1799 4.55017C27.1799 5.26904 26.8419 5.94507 26.2659 6.3783L15.9065 14.1478C15.3638 14.5525 14.6211 14.5525 14.0784 14.1478L3.71899 6.3783C3.14294 5.94507 2.80493 5.26904 2.80493 4.55017C2.80493 3.28857 3.82849 2.26501 5.09009 2.26501H24.8948Z" fill="currentColor"/>
</svg>
