<svg width="36" height="40" viewBox="0 0 36 40" fill="none" xmlns="http://www.w3.org/2000/svg">
  <path fill-rule="evenodd" clip-rule="evenodd" d="M5.82129 17.8422C4.96444 18.7009 4.10523 19.562 3.24231 20.4258C3.04391 20.6269 2.84672 20.8211 2.65249 21.0123L2.65248 21.0123L2.65247 21.0124C2.22381 21.4345 1.80958 21.8423 1.42851 22.2792C0.766372 23.0382 0.720356 24.1341 1.24664 24.8658C1.74804 25.5629 2.55201 25.8114 3.42102 25.5211C3.87525 25.3693 4.21155 25.0432 4.54321 24.7124C7.51041 21.7527 10.4785 18.7937 13.4507 15.839C13.4943 15.7957 13.5365 15.7503 13.5795 15.704L13.5795 15.704C13.7759 15.4927 13.9905 15.2618 14.4441 15.112C14.7281 15.4068 15.0174 15.7079 15.3106 16.013L15.3139 16.0165L15.3154 16.018C15.9935 16.7238 16.6927 17.4514 17.3959 18.175C18.6176 19.4321 19.5548 19.4224 20.8077 18.1593C24.0049 14.936 27.2035 11.714 30.404 8.49401C30.4336 8.46425 30.4629 8.43379 30.4923 8.4031C30.6969 8.18999 30.9119 7.96598 31.3221 7.89268C31.3221 8.24748 31.3212 8.59555 31.3202 8.93897V8.93961V8.94024C31.3181 9.69992 31.3161 10.4369 31.3246 11.1737C31.34 12.5139 32.0426 13.2397 33.2768 13.2163C34.4913 13.1933 35.105 12.5174 35.1077 11.1729C35.1133 8.4078 35.1135 5.6427 35.1087 2.87762C35.1062 1.44602 34.4772 0.81332 33.0258 0.807759C30.2317 0.797058 27.4374 0.798609 24.6433 0.80568C23.3974 0.808831 22.6984 1.42915 22.5925 2.58912C22.4757 3.86834 23.0621 4.71656 24.3177 4.86477C24.9191 4.93575 25.5289 4.93249 26.1391 4.92923C26.491 4.92735 26.8431 4.92546 27.1939 4.93782C27.3209 4.9423 27.4526 4.926 27.5746 4.91092C27.7685 4.88694 27.9374 4.86604 28.0224 4.93674L19.0591 14.0596C18.7426 13.7556 18.4241 13.4498 18.1041 13.1426L18.1029 13.1415C17.3649 12.433 16.6195 11.7174 15.8754 11.0005C14.7869 9.95174 13.7431 9.92913 12.6694 10.997C10.3869 13.2668 8.11313 15.5454 5.8225 17.841L5.82134 17.8422L5.82129 17.8422ZM26.9895 27.5007L26.9922 31.442C26.9932 32.0077 26.992 32.5654 26.9909 33.1174V33.1174V33.1175C26.9883 34.3838 26.9858 35.6207 27.0082 36.8571C27.0351 38.3421 27.7172 39.0098 29.1453 39.0188C30.4845 39.0273 31.8239 39.0292 33.1631 39.0166C34.4331 39.0046 35.1059 38.3402 35.1072 37.0754C35.1135 30.8741 35.1142 24.6727 35.1058 18.4714C35.1041 17.2223 34.4117 16.5481 33.1453 16.5332C32.2094 16.5222 31.2733 16.5247 30.3372 16.5272L30.3358 16.5272C29.9913 16.5282 29.6468 16.5291 29.3023 16.5293C27.656 16.5306 26.9835 17.2067 26.9842 18.8647C26.9853 21.7339 26.9874 24.603 26.9895 27.5007ZM14.7441 29.5201C14.7436 29.1114 14.7422 28.7112 14.7408 28.3169C14.7378 27.4478 14.7348 26.6071 14.7424 25.7665C14.7562 24.2231 15.4618 23.5223 16.9835 23.5197L17.6834 23.5183H17.6838C18.7307 23.5159 19.7776 23.5135 20.8244 23.5242C22.205 23.5384 22.874 24.1968 22.8762 25.548C22.8823 29.418 22.8822 33.288 22.8772 37.158C22.8755 38.5243 22.2177 39.1811 20.8438 39.192C19.5054 39.2027 18.1667 39.203 16.8283 39.1914C15.6186 39.181 14.9266 38.5975 14.7974 37.3734C14.7319 36.7522 14.7382 36.1229 14.7446 35.4943C14.7468 35.2777 14.749 35.0612 14.7482 34.8451C14.744 33.6177 14.7441 32.3904 14.7443 31.1327V31.1309C14.7443 30.6002 14.7444 30.064 14.7441 29.5201ZM2.4905 35.7473C2.49132 36.266 2.49214 36.7888 2.49256 37.3172C2.6955 38.4892 3.23901 38.9989 4.303 39.0135C5.81655 39.0342 7.3308 39.0334 8.84437 39.0129C9.95576 38.9978 10.6285 38.3239 10.6405 37.2016C10.6611 35.2805 10.6624 33.3587 10.6419 31.4375C10.6298 30.3003 9.96869 29.6495 8.84917 29.6391C7.33546 29.625 5.82145 29.6272 4.3077 29.6386C3.09745 29.6476 2.49895 30.2519 2.49294 31.4731C2.48597 32.8872 2.48821 34.3013 2.4905 35.7473Z" fill="currentColor"/>
</svg>