<svg width="24" height="24" viewBox="0 0 24 24" fill="none" xmlns="http://www.w3.org/2000/svg">
  <path id="top" d="M1.71429 3C0.766071 3 0 3.67031 0 4.5C0 5.32969 0.766071 6 1.71429 6H22.2857C23.2339 6 24 5.32969 24 4.5C24 3.67031 23.2339 3 22.2857 3H1.71429Z" fill="currentColor"/>
  <path id="middle" d="M1.71429 10.5C0.766071 10.5 0 11.1703 0 12C0 12.8297 0.766071 13.5 1.71429 13.5H22.2857C23.2339 13.5 24 12.8297 24 12C24 11.1703 23.2339 10.5 22.2857 10.5H1.71429Z" fill="currentColor"/>
  <path id="bottom" d="M24 19.5C24 20.3297 23.2339 21 22.2857 21H1.71429C0.766071 21 0 20.3297 0 19.5C0 18.6703 0.766071 18 1.71429 18H22.2857C23.2339 18 24 18.6703 24 19.5Z" fill="currentColor"/>
</svg>
