<svg width="18" height="18" viewBox="0 0 18 18" fill="none" xmlns="http://www.w3.org/2000/svg">
<path d="M9.4875 11.7525C9.5925 11.4825 9.525 11.175 9.315 10.965L7.7475 9.42L7.77 9.3975C9.075 7.9425 10.005 6.27 10.5525 4.5H12.0075C12.4125 4.5 12.75 4.1625 12.75 3.7575V3.7425C12.75 3.3375 12.4125 3 12.0075 3H7.5V2.25C7.5 1.8375 7.1625 1.5 6.75 1.5C6.3375 1.5 6 1.8375 6 2.25V3H1.4925C1.0875 3 0.75 3.3375 0.75 3.7425C0.75 4.155 1.0875 4.485 1.4925 4.485H9.1275C8.625 5.94 7.83 7.3125 6.75 8.5125C6.1425 7.845 5.6325 7.1175 5.205 6.3525C5.085 6.135 4.8675 6 4.62 6C4.1025 6 3.7725 6.5625 4.0275 7.0125C4.5 7.86 5.0775 8.67 5.7525 9.42L2.475 12.6525C2.175 12.945 2.175 13.425 2.475 13.7175C2.7675 14.01 3.24 14.01 3.54 13.7175L6.75 10.5L8.265 12.015C8.6475 12.3975 9.3 12.255 9.4875 11.7525ZM13.125 7.5C12.675 7.5 12.27 7.7775 12.1125 8.205L9.36 15.555C9.18 16.0125 9.525 16.5 10.0125 16.5C10.305 16.5 10.5675 16.32 10.6725 16.0425L11.34 14.25H14.9025L15.5775 16.0425C15.6825 16.3125 15.945 16.5 16.2375 16.5C16.725 16.5 17.07 16.0125 16.8975 15.555L14.145 8.205C13.98 7.7775 13.575 7.5 13.125 7.5ZM11.91 12.75L13.125 9.5025L14.34 12.75H11.91Z" fill="currentColor" stroke="currentColor" stroke-width="0.35"/>
</svg>
