<svg width="37" height="40" viewBox="0 0 37 40" fill="none" xmlns="http://www.w3.org/2000/svg">
  <path d="M24.9079 5.11024C20.1961 0.787788 14.8456 -0.37647 9.01664 2.03929C3.25568 4.42686 0.28632 9.06695 0.0278435 15.224C-0.305759 23.1706 5.13224 29.6054 12.8922 30.7552C15.6702 31.1668 18.3637 30.7089 20.8464 29.4294C21.8822 28.8956 22.4424 29.1073 23.1572 29.89C25.6601 32.6307 28.2236 35.3161 30.7634 38.0232C31.672 38.9916 32.7418 39.452 34.0724 39.0606C35.2214 38.7227 35.9083 37.9375 36.1642 36.786C36.4356 35.5648 35.9175 34.6114 35.0912 33.763C32.3787 30.978 29.6741 28.1854 26.9687 25.3935C26.8015 25.221 26.6539 25.0295 26.4391 24.7791C28.721 21.5988 29.7205 18.0487 29.282 14.1764C28.888 10.6973 27.4452 7.66709 24.9079 5.11024ZM19.3084 24.3155C15.6602 26.2359 12.1073 26.0332 8.87796 23.5013C5.56112 20.9008 4.38301 17.3698 5.45347 13.2941C6.75911 8.32297 11.4489 5.63735 15.6591 6.14537C19.828 6.64839 23.1555 9.75031 23.9539 13.5777C24.8669 17.9545 23.2216 21.8423 19.3084 24.3155Z" fill="currentColor"/>
</svg>