<svg width="40" height="40" viewBox="0 0 40 40" fill="none" xmlns="http://www.w3.org/2000/svg">
  <path fill-rule="evenodd" clip-rule="evenodd" d="M12.7621 33.1538C5.11695 29.3553 2.40469 19.8063 6.86233 12.1711C10.4765 6.69111 16.3823 4.39536 22.5681 6.01864C27.5555 7.32746 31.9722 12.0583 32.301 16.4816C32.2653 16.4955 32.2289 16.511 32.1918 16.5269C32.1096 16.5621 32.0238 16.5988 31.9345 16.6214C30.1795 17.0646 29.8812 17.8366 30.9261 19.2741C31.0213 19.4051 31.1165 19.5362 31.2117 19.6673C32.0201 20.7801 32.8287 21.8932 33.662 22.9873C34.538 24.1373 35.4309 24.1538 36.3074 23.0204C37.2902 21.7495 38.2351 20.4487 39.1768 19.1467C40.1015 17.8683 39.6693 16.8159 38.09 16.6649C37.2933 16.5888 37.0762 16.2553 36.9189 15.526C34.3902 3.7979 22.4858 -1.80057 12.2705 1.96185C4.38547 4.86602 0.00110836 12.8385 0.0937232 20.3156C0.245064 32.5344 11.3455 41.5125 23.1866 38.672C28.0765 37.4991 31.7692 34.5646 34.2682 30.1913C34.8954 29.0936 34.5411 27.8639 33.5704 27.2541C32.5543 26.6157 31.4022 26.8422 30.5941 27.8575C30.4091 28.09 30.235 28.3311 30.0609 28.5722C29.8871 28.8129 29.7133 29.0536 29.5287 29.2856C25.4029 34.471 18.5779 36.0434 12.7621 33.1538ZM21.159 23.9929C21.0767 24.8794 20.4541 25.1165 19.6145 25.2098C17.9738 25.3601 16.5536 25.0712 15.2666 24.1241C14.2205 23.3544 13.297 23.4051 12.6346 24.1395C11.9266 24.9245 12.006 26.0169 12.8986 26.9541C13.7111 27.8074 14.7416 28.3368 15.8551 28.6761C16.5029 28.8735 16.9207 29.0896 16.986 29.9063C17.0612 30.8482 17.914 31.4161 18.8511 31.3743C19.8177 31.3313 20.4866 30.8176 20.573 29.8738C20.6406 29.1354 20.9821 28.8708 21.6022 28.6543C23.3195 28.0546 24.5665 26.9584 24.9974 25.1191C25.6575 22.3019 24.4835 20.1271 21.6956 19.0586C20.9497 18.7728 20.1899 18.5234 19.43 18.274C18.8962 18.0989 18.3624 17.9236 17.8332 17.7357C17.0984 17.4748 16.4332 17.0598 16.6853 16.1427C16.9299 15.2525 17.7001 15.0659 18.5242 15.1125C19.707 15.1793 20.7435 15.5754 21.677 16.35C22.5623 17.0847 23.5529 16.9941 24.2211 16.2704C24.7964 15.6472 24.7741 14.5811 24.1499 13.7686C23.4939 12.9148 22.647 12.3008 21.6285 11.9687C20.9601 11.7507 20.6054 11.4529 20.5828 10.6585C20.5535 9.62798 19.7742 9.02121 18.7683 9.02343C17.7621 9.02565 16.9899 9.63543 16.9493 10.6626C16.9199 11.4051 16.5742 11.6684 15.9654 11.9201C13.6809 12.8651 12.5975 14.4375 12.6426 16.6265C12.6924 19.0407 13.7322 20.4595 16.1924 21.3654C16.844 21.6053 17.506 21.8165 18.1681 22.0278C18.7694 22.2197 19.3708 22.4116 19.9644 22.6249C20.5871 22.8488 21.2401 23.1197 21.159 23.9929Z" fill="currentColor"/>
</svg>