<svg width="37" height="40" viewBox="0 0 37 40" fill="none" xmlns="http://www.w3.org/2000/svg">
  <path d="M22.5952 0.800615C26.0429 0.754772 28.7161 3.22753 28.764 6.42001C28.7843 7.77293 28.5791 7.99287 27.2222 7.99361C20.6745 7.99718 14.1269 7.99467 7.57922 7.99477C7.16201 7.99477 6.74459 7.9911 6.32763 8.00239C5.72771 8.01863 5.30556 8.3276 5.31464 8.92538C5.32366 9.51877 5.81717 9.69674 6.34306 9.70267C7.53048 9.71608 8.71809 9.71371 9.90562 9.71803C16.6127 9.74238 23.3197 9.7588 30.0267 9.79437C33.8255 9.81451 36.4181 12.423 36.4267 16.232C36.4391 21.6883 36.4377 27.1447 36.426 32.6011C36.418 36.2789 33.6932 39.1321 30.0143 39.1575C22.2795 39.2108 14.5438 39.2143 6.80893 39.166C3.0393 39.1424 0.341554 36.3551 0.329894 32.59C0.308527 25.6893 0.311567 18.7885 0.329489 11.8879C0.337568 8.7759 2.24957 6.35412 5.52699 5.40986C9.50006 4.26519 13.4997 3.21249 17.4904 2.1295C19.16 1.6764 20.8362 1.24776 22.5952 0.800615ZM26.2857 26.6842C27.6591 27.3478 28.7061 27.2149 29.691 26.2519C30.5777 25.385 30.8051 24.1195 30.2782 22.9835C29.7448 21.8332 28.6061 21.1906 27.3123 21.3096C26.2782 21.4047 25.2621 22.2306 24.9819 23.3213C24.6381 24.6597 25.0167 25.7833 26.2857 26.6842Z" fill="currentColor"/>
</svg>
