<svg width="2rem" height="2rem" viewBox="0 0 20 20" fill="none" xmlns="http://www.w3.org/2000/svg">
  <path fill-rule="evenodd" clip-rule="evenodd" d="M11.6168 15.1799C10.9637 16.4861 10.3471 16.7063 10.125 16.7063C9.90291 16.7063 9.28626 16.4861 8.63315 15.1799C8.34912 14.6118 8.10604 13.9187 7.92779 13.1313H12.3222C12.144 13.9187 11.9009 14.6118 11.6168 15.1799ZM12.5626 11.6687H7.68736C7.63465 11.176 7.60625 10.6597 7.60625 10.125C7.60625 9.59033 7.63465 9.07399 7.68736 8.58125H12.5626C12.6153 9.07399 12.6438 9.59033 12.6438 10.125C12.6438 10.6597 12.6153 11.176 12.5626 11.6687ZM13.9004 13.1313C13.6728 14.2732 13.3195 15.2876 12.8747 16.1061C14.213 15.4898 15.3091 14.4375 15.9811 13.1313H13.9004ZM16.5242 11.6687H14.1143C14.1623 11.1689 14.1875 10.6529 14.1875 10.125C14.1875 9.59715 14.1623 9.08105 14.1143 8.58125H16.5242C16.6432 9.0764 16.7063 9.59334 16.7063 10.125C16.7063 10.6567 16.6432 11.1736 16.5242 11.6687ZM17.6757 13.1313H17.6813V13.1172C18.0483 12.1912 18.25 11.1817 18.25 10.125C18.25 9.06835 18.0483 8.05881 17.6813 7.13278V7.11875H17.6757C16.4806 4.11961 13.5503 2 10.125 2C5.63769 2 2 5.63769 2 10.125C2 14.6123 5.63769 18.25 10.125 18.25C13.5503 18.25 16.4806 16.1304 17.6757 13.1313ZM15.9811 7.11875C15.3091 5.81251 14.213 4.76024 12.8747 4.14395C13.3195 4.96241 13.6728 5.97683 13.9004 7.11875H15.9811ZM12.3222 7.11875C12.144 6.33132 11.9009 5.6382 11.6168 5.07014C10.9637 3.76392 10.3471 3.54375 10.125 3.54375C9.90291 3.54375 9.28626 3.76392 8.63315 5.07014C8.34912 5.6382 8.10604 6.33132 7.92779 7.11875H12.3222ZM6.34964 7.11875C6.57717 5.97683 6.93046 4.96241 7.3753 4.14395C6.03698 4.76024 4.94085 5.81251 4.26893 7.11875H6.34964ZM3.72581 8.58125C3.60679 9.0764 3.54375 9.59334 3.54375 10.125C3.54375 10.6567 3.60679 11.1736 3.72581 11.6687H6.13574C6.08767 11.1689 6.0625 10.6529 6.0625 10.125C6.0625 9.59715 6.08767 9.08105 6.13574 8.58125H3.72581ZM6.34964 13.1313H4.26893C4.94085 14.4375 6.03698 15.4898 7.3753 16.1061C6.93046 15.2876 6.57717 14.2732 6.34964 13.1313Z" fill="currentColor"/>
</svg>