<svg xmlns="http://www.w3.org/2000/svg" version="1.1" xmlns:xlink="http://www.w3.org/1999/xlink" xmlns:svgjs="http://svgjs.dev/svgjs" width="1000" height="1000"><style>
    #light-icon {
      display: inline;
    }
    #dark-icon {
      display: none;
    }

    @media (prefers-color-scheme: dark) {
      #light-icon {
        display: none;
      }
      #dark-icon {
        display: inline;
      }
    }
  </style><g id="light-icon"><svg xmlns="http://www.w3.org/2000/svg" version="1.1" xmlns:xlink="http://www.w3.org/1999/xlink" xmlns:svgjs="http://svgjs.dev/svgjs" width="1000" height="1000"><g clip-path="url(#SvgjsClipPath1094)"><rect width="1000" height="1000" fill="#ffffff"></rect><g transform="matrix(33.333333333333336,0,0,33.333333333333336,100,133.33333333333331)"><svg xmlns="http://www.w3.org/2000/svg" version="1.1" xmlns:xlink="http://www.w3.org/1999/xlink" xmlns:svgjs="http://svgjs.dev/svgjs" width="24" height="22"><svg width="24" height="22" viewBox="0 0 24 22" fill="none" xmlns="http://www.w3.org/2000/svg">
<path d="M20.1475 14.0478C16.633 16.3311 13.1638 18.5891 9.68971 20.8397C8.42495 21.659 7.37804 21.4301 6.5647 20.1789C6.4425 19.9909 6.32038 19.8028 6.19823 19.6148C5.99151 19.2966 5.78481 18.9784 5.57807 18.6603C5.10566 17.9332 5.10565 17.9332 5.6743 17.298C6.26308 16.6403 6.35112 15.668 5.88697 14.9492C5.37262 14.1526 4.56264 13.8647 3.64126 14.1509C2.8168 14.407 2.81669 14.4071 2.34127 13.6758C1.98402 13.1263 1.62454 12.5783 1.27067 12.0267C0.640751 11.0447 0.836824 9.98237 1.78467 9.29912C2.13405 9.04728 2.50515 8.82554 2.86673 8.59067C6.62734 6.14802 10.3878 3.70512 14.1488 1.26311C15.583 0.331898 16.6062 0.554404 17.5405 1.99722C17.878 2.51839 18.2107 3.04284 18.5567 3.55831C18.7807 3.89215 18.788 4.15102 18.464 4.45826C17.6552 5.22538 17.5348 6.18734 18.0891 7.01819C18.6357 7.83754 19.5469 8.0741 20.5986 7.65584C20.9212 7.52755 21.1678 7.58433 21.3573 7.87678C21.8355 8.61498 22.3415 9.33693 22.7855 10.0952C23.3429 11.0474 23.0205 12.1431 22.0117 12.8335C21.414 13.2424 20.7985 13.6252 20.1475 14.0478ZM10.2602 9.27381C9.74714 8.31648 8.42925 8.15136 7.73326 8.55237C6.76578 9.10981 6.42444 10.2237 6.94767 11.1739C7.50043 12.1777 8.68538 12.5523 9.65601 12.0299C10.5209 11.5645 10.8167 10.349 10.2602 9.27381ZM16.8954 12.6537C16.9812 12.4856 17.0844 12.3239 17.1499 12.1482C17.4193 11.426 17.1627 10.4921 16.5665 9.9838C15.9728 9.47763 15.1005 9.37066 14.4394 9.72051C13.6903 10.1169 13.3447 10.7536 13.3907 11.5827C13.4385 12.4427 13.9123 13.0346 14.7093 13.3152C15.5373 13.6067 16.2665 13.3945 16.8954 12.6537ZM11.3442 14.4464C11.3428 14.6013 11.3321 14.7568 11.342 14.9109C11.3628 15.2339 11.5445 15.4282 11.864 15.4398C12.1741 15.4511 12.3865 15.2833 12.4589 14.9746C12.4861 14.859 12.4814 14.7353 12.4849 14.615C12.5299 13.0665 12.5755 11.5181 12.6172 9.96948C12.6437 8.9887 12.6698 8.00784 12.6838 7.02684C12.6888 6.66984 12.5164 6.41726 12.1359 6.41147C11.7686 6.40589 11.5723 6.62673 11.5403 6.98995C11.5328 7.0754 11.5372 7.16186 11.5349 7.24783C11.472 9.62215 11.409 11.9965 11.3442 14.4464Z" fill="#EE2C26"></path>
</svg></svg></g></g><defs><clipPath id="SvgjsClipPath1094"><rect width="1000" height="1000" x="0" y="0" rx="500" ry="500"></rect></clipPath></defs></svg></g><g id="dark-icon"><svg xmlns="http://www.w3.org/2000/svg" version="1.1" xmlns:xlink="http://www.w3.org/1999/xlink" xmlns:svgjs="http://svgjs.dev/svgjs" width="1000" height="1000"><g clip-path="url(#SvgjsClipPath1095)"><rect width="1000" height="1000" fill="#3b3b3b"></rect><g transform="matrix(37.5,0,0,37.5,50,87.5)"><svg xmlns="http://www.w3.org/2000/svg" version="1.1" xmlns:xlink="http://www.w3.org/1999/xlink" xmlns:svgjs="http://svgjs.dev/svgjs" width="24" height="22"><svg width="24" height="22" viewBox="0 0 24 22" fill="none" xmlns="http://www.w3.org/2000/svg">
<path d="M20.1475 14.0478C16.633 16.3311 13.1638 18.5891 9.68971 20.8397C8.42495 21.659 7.37804 21.4301 6.5647 20.1789C6.4425 19.9909 6.32038 19.8028 6.19823 19.6148C5.99151 19.2966 5.78481 18.9784 5.57807 18.6603C5.10566 17.9332 5.10565 17.9332 5.6743 17.298C6.26308 16.6403 6.35112 15.668 5.88697 14.9492C5.37262 14.1526 4.56264 13.8647 3.64126 14.1509C2.8168 14.407 2.81669 14.4071 2.34127 13.6758C1.98402 13.1263 1.62454 12.5783 1.27067 12.0267C0.640751 11.0447 0.836824 9.98237 1.78467 9.29912C2.13405 9.04728 2.50515 8.82554 2.86673 8.59067C6.62734 6.14802 10.3878 3.70512 14.1488 1.26311C15.583 0.331898 16.6062 0.554404 17.5405 1.99722C17.878 2.51839 18.2107 3.04284 18.5567 3.55831C18.7807 3.89215 18.788 4.15102 18.464 4.45826C17.6552 5.22538 17.5348 6.18734 18.0891 7.01819C18.6357 7.83754 19.5469 8.0741 20.5986 7.65584C20.9212 7.52755 21.1678 7.58433 21.3573 7.87678C21.8355 8.61498 22.3415 9.33693 22.7855 10.0952C23.3429 11.0474 23.0205 12.1431 22.0117 12.8335C21.414 13.2424 20.7985 13.6252 20.1475 14.0478ZM10.2602 9.27381C9.74714 8.31648 8.42925 8.15136 7.73326 8.55237C6.76578 9.10981 6.42444 10.2237 6.94767 11.1739C7.50043 12.1777 8.68538 12.5523 9.65601 12.0299C10.5209 11.5645 10.8167 10.349 10.2602 9.27381ZM16.8954 12.6537C16.9812 12.4856 17.0844 12.3239 17.1499 12.1482C17.4193 11.426 17.1627 10.4921 16.5665 9.9838C15.9728 9.47763 15.1005 9.37066 14.4394 9.72051C13.6903 10.1169 13.3447 10.7536 13.3907 11.5827C13.4385 12.4427 13.9123 13.0346 14.7093 13.3152C15.5373 13.6067 16.2665 13.3945 16.8954 12.6537ZM11.3442 14.4464C11.3428 14.6013 11.3321 14.7568 11.342 14.9109C11.3628 15.2339 11.5445 15.4282 11.864 15.4398C12.1741 15.4511 12.3865 15.2833 12.4589 14.9746C12.4861 14.859 12.4814 14.7353 12.4849 14.615C12.5299 13.0665 12.5755 11.5181 12.6172 9.96948C12.6437 8.9887 12.6698 8.00784 12.6838 7.02684C12.6888 6.66984 12.5164 6.41726 12.1359 6.41147C11.7686 6.40589 11.5723 6.62673 11.5403 6.98995C11.5328 7.0754 11.5372 7.16186 11.5349 7.24783C11.472 9.62215 11.409 11.9965 11.3442 14.4464Z" fill="#EE2C26"></path>
</svg></svg></g></g><defs><clipPath id="SvgjsClipPath1095"><rect width="1000" height="1000" x="0" y="0" rx="500" ry="500"></rect></clipPath></defs></svg></g></svg>