<svg width="86" height="90" viewBox="0 0 86 90" fill="none" xmlns="http://www.w3.org/2000/svg">
<g clip-path="url(#clip0_3182_427)">
<path d="M32.0805 73.0735C26.7412 72.398 19.8978 69.6058 15.3704 66.2554C4.4485 58.1729 -1.29508 44.1177 0.998393 31.0854C2.83 20.6776 8.4898 11.996 17.1486 6.31255C28.6545 -1.2397 42.7768 -1.61795 55.4438 5.28687C58.889 7.16483 60.6805 7.38851 63.1807 6.25285C65.6252 5.49262 68.0965 0 68.0965 0V12.0615V23.0309H63.5263C60.1839 14.6298 55.383 8.1265 50.5647 6.70495C48.0998 5.97773 44.3303 6.21884 41.9917 7.25331C39.7813 8.23109 37.1437 10.7383 36.0453 12.9059C34.2858 16.3781 34.0916 18.7708 34.0916 36.9729C34.0916 57.741 34.3224 59.3461 37.906 63.501C39.5159 65.3675 42.9375 67.1387 45.5683 67.4674C53.2745 68.4302 62.2693 61.1727 63.2553 53.1965L63.5263 51.0027L68.167 50.7831L67.9048 52.3351C66.7229 59.3306 61.7956 66.08 55.4818 69.3522C49.0394 72.691 40.1858 74.0989 32.0805 73.0735Z" fill="currentColor"/>
<path d="M72.5762 72.3549C66.276 69.2364 66.6058 59.89 73.1123 57.1635C74.8998 56.4144 78.0723 56.5434 79.9861 57.4431C86.3072 60.4143 86.0248 69.9116 79.5346 72.6314C77.7286 73.3882 74.3961 73.2558 72.5762 72.3549Z" fill="#767676"/>
<path d="M4.89546 87.8874L5.9662 88.0198C5.79733 88.6454 5.48456 89.1309 5.02786 89.4763C4.57117 89.8217 3.98783 89.9944 3.27785 89.9944C2.38365 89.9944 1.67366 89.72 1.14789 89.1712C0.625956 88.6185 0.36499 87.8452 0.36499 86.8512C0.36499 85.8227 0.629794 85.0245 1.1594 84.4565C1.68901 83.8885 2.37598 83.6045 3.22028 83.6045C4.03772 83.6045 4.70549 83.8827 5.22359 84.4392C5.74168 84.9957 6.00073 85.7786 6.00073 86.7879C6.00073 86.8493 5.99882 86.9414 5.99499 87.0642H1.43574C1.47412 87.7358 1.66409 88.2501 2.00565 88.607C2.34721 88.9639 2.7732 89.1424 3.28362 89.1424C3.66356 89.1424 3.98785 89.0426 4.25649 88.843C4.52513 88.6435 4.73811 88.3249 4.89546 87.8874ZM1.49329 86.2123H4.90697C4.86092 85.698 4.73044 85.3123 4.51553 85.0552C4.18548 84.656 3.75757 84.4565 3.23179 84.4565C2.75591 84.4565 2.35487 84.6157 2.02866 84.9343C1.70629 85.2528 1.52783 85.6788 1.49329 86.2123Z" fill="currentColor"/>
<path d="M6.72607 89.8563V81.4171H7.76227V89.8563H6.72607Z" fill="currentColor"/>
<path d="M14.3302 86.7535L15.9823 87.2774C15.729 88.1984 15.3069 88.8835 14.7159 89.3325C14.1287 89.7777 13.3822 90.0003 12.4765 90.0003C11.3559 90.0003 10.4348 89.6184 9.71335 88.8547C8.99185 88.0871 8.6311 87.0394 8.6311 85.7116C8.6311 84.3069 8.99377 83.217 9.71911 82.4418C10.4444 81.6627 11.3981 81.2732 12.5802 81.2732C13.6125 81.2732 14.4511 81.5783 15.0958 82.1885C15.4796 82.5493 15.7674 83.0673 15.9593 83.7428L14.2726 84.1457C14.1728 83.7082 13.9637 83.3629 13.6451 83.1096C13.3304 82.8563 12.9467 82.7296 12.4938 82.7296C11.8683 82.7296 11.3597 82.9541 10.9683 83.4031C10.5807 83.8522 10.3869 84.5794 10.3869 85.5849C10.3869 86.6518 10.5788 87.4117 10.9625 87.8646C11.3463 88.3174 11.8452 88.5438 12.4593 88.5438C12.9121 88.5438 13.3017 88.3999 13.6279 88.1121C13.9541 87.8242 14.1882 87.3714 14.3302 86.7535Z" fill="currentColor"/>
<path d="M16.5581 85.6885C16.5581 84.8289 16.6867 84.1074 16.9438 83.524C17.1357 83.0942 17.3967 82.7085 17.7267 82.367C18.0606 82.0254 18.4252 81.7721 18.8205 81.6071C19.3462 81.3845 19.9526 81.2732 20.6396 81.2732C21.883 81.2732 22.877 81.6589 23.6215 82.4303C24.3699 83.2017 24.744 84.2743 24.744 85.6482C24.744 87.0106 24.3737 88.0775 23.633 88.8489C22.8923 89.6165 21.9022 90.0003 20.6626 90.0003C19.4076 90.0003 18.4098 89.6184 17.6691 88.8547C16.9285 88.0871 16.5581 87.0317 16.5581 85.6885ZM18.3139 85.631C18.3139 86.5866 18.5346 87.3119 18.9759 87.807C19.4172 88.2982 19.9775 88.5438 20.6568 88.5438C21.3361 88.5438 21.8926 88.3001 22.3263 87.8127C22.7638 87.3215 22.9825 86.5866 22.9825 85.6079C22.9825 84.6408 22.7695 83.9193 22.3435 83.4434C21.9214 82.9676 21.3591 82.7296 20.6568 82.7296C19.9545 82.7296 19.3885 82.9714 18.9586 83.455C18.5288 83.9347 18.3139 84.66 18.3139 85.631Z" fill="currentColor"/>
<path d="M25.613 89.8561V81.486H27.317V88.4342H31.5539V89.8561H25.613Z" fill="currentColor"/>
<path d="M31.9049 85.6885C31.9049 84.8289 32.0335 84.1074 32.2906 83.524C32.4825 83.0942 32.7435 82.7085 33.0735 82.367C33.4074 82.0254 33.772 81.7721 34.1673 81.6071C34.693 81.3845 35.2994 81.2732 35.9864 81.2732C37.2298 81.2732 38.2238 81.6589 38.9683 82.4303C39.7167 83.2017 40.0908 84.2743 40.0908 85.6482C40.0908 87.0106 39.7205 88.0775 38.9798 88.8489C38.2391 89.6165 37.249 90.0003 36.0094 90.0003C34.7544 90.0003 33.7566 89.6184 33.0159 88.8547C32.2753 88.0871 31.9049 87.0317 31.9049 85.6885ZM33.6607 85.631C33.6607 86.5866 33.8814 87.3119 34.3227 87.807C34.764 88.2982 35.3244 88.5438 36.0036 88.5438C36.6829 88.5438 37.2394 88.3001 37.6731 87.8127C38.1106 87.3215 38.3293 86.5866 38.3293 85.6079C38.3293 84.6408 38.1163 83.9193 37.6903 83.4434C37.2682 82.9676 36.7059 82.7296 36.0036 82.7296C35.3013 82.7296 34.7353 82.9714 34.3054 83.455C33.8756 83.9347 33.6607 84.66 33.6607 85.631Z" fill="currentColor"/>
<path d="M40.891 89.8563V81.4171H43.4412L44.9724 87.1737L46.4864 81.4171H49.0424V89.8563H47.4593V83.2132L45.7841 89.8563H44.1435L42.4741 83.2132V89.8563H40.891Z" fill="currentColor"/>
<path d="M50.2052 81.4171H53.5786C54.2464 81.4171 54.7433 81.4459 55.0696 81.5035C55.3996 81.5572 55.6932 81.6723 55.9503 81.8489C56.2113 82.0254 56.4281 82.2614 56.6008 82.5569C56.7735 82.8486 56.8599 83.1767 56.8599 83.5413C56.8599 83.9366 56.7524 84.2993 56.5375 84.6293C56.3264 84.9594 56.0386 85.2069 55.674 85.3719C56.1883 85.5216 56.5836 85.7768 56.8599 86.1376C57.1362 86.4983 57.2744 86.9224 57.2744 87.4098C57.2744 87.7935 57.1842 88.1677 57.0038 88.5323C56.8273 88.8931 56.5836 89.1828 56.2727 89.4016C55.9657 89.6165 55.5857 89.7489 55.1329 89.7988C54.8489 89.8295 54.1638 89.8487 53.0778 89.8563H50.2052V81.4171ZM51.9092 82.8217V84.7732H53.026C53.6899 84.7732 54.1024 84.7636 54.2636 84.7444C54.5553 84.7099 54.7836 84.6101 54.9487 84.4451C55.1175 84.2762 55.202 84.0556 55.202 83.7831C55.202 83.5221 55.129 83.3111 54.9832 83.1499C54.8412 82.9848 54.6282 82.8851 54.3442 82.8505C54.1754 82.8313 53.6899 82.8217 52.8878 82.8217H51.9092ZM51.9092 86.1778V88.4344H53.4865C54.1005 88.4344 54.4901 88.4172 54.6551 88.3826C54.9084 88.3366 55.1137 88.2253 55.271 88.0488C55.4322 87.8684 55.5128 87.6285 55.5128 87.3292C55.5128 87.0759 55.4514 86.861 55.3286 86.6844C55.2058 86.5079 55.0273 86.3793 54.7932 86.2987C54.563 86.2181 54.0602 86.1778 53.285 86.1778H51.9092Z" fill="currentColor"/>
<path d="M58.1201 89.8563V81.4171H59.8241V89.8563H58.1201Z" fill="currentColor"/>
<path d="M68.5283 89.8563H66.6747L65.9378 87.9394H62.5644L61.8679 89.8563H60.0603L63.3473 81.4171H65.1492L68.5283 89.8563ZM65.3909 86.5175L64.2281 83.3859L63.0883 86.5175H65.3909Z" fill="currentColor"/>
<path d="M68.931 89.8563V81.4171H70.5889L74.0429 87.0528V81.4171H75.626V89.8563H73.9163L70.5141 84.353V89.8563H68.931Z" fill="currentColor"/>
<path d="M76.5643 85.6885C76.5643 84.8289 76.6929 84.1074 76.95 83.524C77.1419 83.0942 77.4029 82.7085 77.7329 82.367C78.0668 82.0254 78.4314 81.7721 78.8267 81.6071C79.3525 81.3845 79.9588 81.2732 80.6458 81.2732C81.8892 81.2732 82.8832 81.6589 83.6277 82.4303C84.3761 83.2017 84.7503 84.2743 84.7503 85.6482C84.7503 87.0106 84.3799 88.0775 83.6392 88.8489C82.8985 89.6165 81.9084 90.0003 80.6688 90.0003C79.4139 90.0003 78.416 89.6184 77.6754 88.8547C76.9347 88.0871 76.5643 87.0317 76.5643 85.6885ZM78.3201 85.631C78.3201 86.5866 78.5408 87.3119 78.9821 87.807C79.4235 88.2982 79.9838 88.5438 80.6631 88.5438C81.3423 88.5438 81.8988 88.3001 82.3325 87.8127C82.77 87.3215 82.9887 86.5866 82.9887 85.6079C82.9887 84.6408 82.7757 83.9193 82.3497 83.4434C81.9276 82.9676 81.3654 82.7296 80.6631 82.7296C79.9608 82.7296 79.3947 82.9714 78.9648 83.455C78.535 83.9347 78.3201 84.66 78.3201 85.631Z" fill="currentColor"/>
<path d="M85.0204 76.2323H0.530396V77.0158H85.0204V76.2323Z" fill="currentColor"/>
</g>
<defs>
<clipPath id="clip0_3182_427">
<rect width="84.6557" height="90" fill="none" transform="translate(0.364746)"/>
</clipPath>
</defs>
</svg>
