<svg width="200" height="30" viewBox="0 0 200 30" fill="none" xmlns="http://www.w3.org/2000/svg">
<g clip-path="url(#clip0_3182_449)">
<path d="M14.5631 29.3742V21.8321C14.5631 21.6349 14.4645 21.5706 14.3316 21.5706C14.233 21.5706 14.1344 21.6006 14.1344 21.8321V22.2266C14.1344 24.0617 13.0839 29.2113 8.55603 29.2113H6.88382C6.68659 29.2113 6.65657 29.1127 6.65657 29.0141V17.8617C6.65657 17.7631 6.72089 17.6645 6.91813 17.6645H7.80139C9.31067 17.6645 10.4941 19.4996 10.4941 21.3047V21.6006C10.4941 21.8621 10.6227 21.8621 10.7213 21.8621C10.82 21.8621 10.9186 21.8321 10.9186 21.6006V13.3982C10.9186 13.2009 10.82 13.1366 10.7213 13.1366C10.6227 13.1366 10.4941 13.1709 10.4941 13.3982V13.7283C10.4941 15.4992 9.31067 17.3043 7.80139 17.3043H6.88382C6.68659 17.3043 6.65657 17.24 6.65657 17.1414V7.03519C6.65657 6.93658 6.72089 6.83796 6.91813 6.83796H8.72326C11.7075 6.83796 13.1825 10.3153 13.1825 13.5654V13.9899C13.1825 14.2514 13.2811 14.2514 13.3797 14.2514C13.5126 14.2514 13.6113 14.2214 13.6113 13.9899V6.67502C13.6113 6.51209 13.5427 6.44348 13.3454 6.44348H1.3741C1.14257 6.44348 1.07825 6.5421 1.07825 6.64072C1.07825 6.70932 1.11255 6.80794 1.3741 6.80794H2.4546C2.72044 6.80794 2.78476 7.09951 2.78476 8.11999V27.9336C2.78476 28.9497 2.72044 29.2456 2.4546 29.2456H1.3741C1.11255 29.2456 1.07825 29.3442 1.07825 29.4085C1.07825 29.5071 1.14257 29.6058 1.3741 29.6058H14.3316C14.4945 29.6058 14.5631 29.5414 14.5631 29.3742Z" fill="currentColor"/>
<path d="M30.0153 29.3742V21.1418C30.0153 20.9446 29.8824 20.8803 29.7838 20.8803C29.6852 20.8803 29.5866 20.9102 29.5866 21.1418V21.7978C29.5866 24.2933 28.4375 29.2113 24.0082 29.2113H22.336C22.1388 29.2113 22.1088 29.1127 22.1088 29.0141V8.11999C22.1088 7.09951 22.1388 6.80794 22.4346 6.80794H24.0082C24.2741 6.80794 24.2741 6.70932 24.2741 6.64072C24.2741 6.5421 24.2398 6.44348 24.0082 6.44348H16.8263C16.5948 6.44348 16.5305 6.5421 16.5305 6.64072C16.5305 6.70932 16.5648 6.80794 16.8263 6.80794H17.9068C18.1726 6.80794 18.237 7.09951 18.237 8.11999V27.9336C18.237 28.9497 18.1726 29.2456 17.9068 29.2456H16.8263C16.5648 29.2456 16.5305 29.3442 16.5305 29.4085C16.5305 29.5071 16.5948 29.6058 16.8263 29.6058H29.7495C29.9467 29.6058 30.0153 29.5414 30.0153 29.3742Z" fill="currentColor"/>
<path d="M53.6035 29.3742V21.8321C53.6035 21.6349 53.5049 21.5706 53.3719 21.5706C53.2733 21.5706 53.1747 21.6006 53.1747 21.8321V22.2266C53.1747 24.0617 52.1242 29.2113 47.5964 29.2113H45.9242C45.7269 29.2113 45.6969 29.1127 45.6969 29.0141V17.8617C45.6969 17.7631 45.7612 17.6645 45.9585 17.6645H46.8417C48.351 17.6645 49.5344 19.4996 49.5344 21.3047V21.6006C49.5344 21.8621 49.6631 21.8621 49.7617 21.8621C49.8603 21.8621 49.9589 21.8321 49.9589 21.6006V13.3982C49.9589 13.2009 49.8603 13.1366 49.7617 13.1366C49.6631 13.1366 49.5344 13.1709 49.5344 13.3982V13.7283C49.5344 15.4992 48.351 17.3043 46.8417 17.3043H45.9242C45.7269 17.3043 45.6969 17.24 45.6969 17.1414V7.03519C45.6969 6.93658 45.7612 6.83796 45.9585 6.83796H47.7636C50.7479 6.83796 52.2228 10.3153 52.2228 13.5654V13.9899C52.2228 14.2514 52.3215 14.2514 52.4201 14.2514C52.553 14.2514 52.6516 14.2214 52.6516 13.9899V6.67502C52.6516 6.51209 52.583 6.44348 52.3858 6.44348H40.4144C40.1829 6.44348 40.1186 6.5421 40.1186 6.64072C40.1186 6.70932 40.1529 6.80794 40.4144 6.80794H41.495C41.7608 6.80794 41.8251 7.09951 41.8251 8.11999V27.9336C41.8251 28.9497 41.7608 29.2456 41.495 29.2456H40.4144C40.1529 29.2456 40.1186 29.3442 40.1186 29.4085C40.1186 29.5071 40.1829 29.6058 40.4144 29.6058H53.3719C53.5349 29.6058 53.6035 29.5414 53.6035 29.3742Z" fill="currentColor"/>
<path d="M67.9704 23.3711C67.9704 16.0562 58.5888 15.6961 58.5888 9.59464C58.5888 7.62657 59.6393 6.44316 61.3458 6.44316C64.1972 6.44316 65.8394 10.152 65.8394 13.728V13.9896C65.8394 14.2511 65.968 14.2854 66.0666 14.2854C66.1652 14.2854 66.2638 14.2211 66.2638 13.9896V6.6747C66.2638 6.41315 66.1652 6.34454 66.0666 6.34454C65.968 6.34454 65.8394 6.37884 65.8394 6.6747V6.90623C65.8394 7.46364 65.312 7.2321 64.7246 6.90623C63.7384 6.41315 62.6879 6.01868 61.5731 6.01868C57.8342 6.01868 56.1277 9.69325 56.1277 12.5446C56.1277 19.6965 65.2477 20.1253 65.2477 26.1281C65.2477 28.2291 63.8713 29.6054 61.6374 29.6054C57.7356 29.6054 56.4878 24.5545 56.4878 21.2744V20.9785C56.4878 20.747 56.3892 20.717 56.2606 20.717C56.162 20.717 56.0634 20.747 56.0634 20.9785V29.3439C56.0634 29.6054 56.162 29.6697 56.2606 29.6697C56.3892 29.6697 56.4878 29.6398 56.4878 29.3439V29.1467C56.4878 28.6193 57.0152 28.7522 57.7356 29.0823C58.8161 29.5711 59.9995 29.9999 61.5731 29.9999C65.4449 29.9999 67.9704 26.947 67.9704 23.3711Z" fill="currentColor"/>
<path d="M83.9471 12.9737C83.9471 8.08568 80.7313 6.44348 77.7814 6.44348H69.7762C69.5447 6.44348 69.4803 6.5421 69.4803 6.64072C69.4803 6.70932 69.5146 6.80794 69.7762 6.80794H70.8567C71.1225 6.80794 71.1869 7.09951 71.1869 8.11999V27.9336C71.1869 28.9497 71.1225 29.2456 70.8567 29.2456H69.7762C69.5147 29.2456 69.4803 29.3442 69.4803 29.4085C69.4803 29.5071 69.5447 29.6058 69.7762 29.6058H77.0267C77.254 29.6058 77.3226 29.5071 77.3226 29.4085C77.3226 29.3442 77.2883 29.2456 77.0267 29.2456H75.3845C75.0887 29.2456 75.0587 28.9497 75.0587 27.9336V19.6668C75.0587 19.5682 75.123 19.4353 75.3202 19.4353H77.9786C81.0272 19.4353 83.9471 17.4029 83.9471 12.9737ZM79.7151 12.9394C79.7151 17.5015 79.0934 19.0408 77.1254 19.0408H75.3202C75.0887 19.0408 75.0587 18.9422 75.0587 18.8436V7.03519C75.0587 6.93658 75.123 6.83796 75.3545 6.83796H77.1254C78.9605 6.83796 79.7151 8.44585 79.7151 12.9394Z" fill="currentColor"/>
<path d="M97.9809 29.3742V21.8321C97.9809 21.6349 97.8822 21.5706 97.7493 21.5706C97.6507 21.5706 97.5521 21.6006 97.5521 21.8321V22.2266C97.5521 24.0617 96.5016 29.2113 91.9738 29.2113H90.3015C90.1043 29.2113 90.0743 29.1127 90.0743 29.0141V17.8617C90.0743 17.7631 90.1386 17.6645 90.3359 17.6645H91.2191C92.7284 17.6645 93.9118 19.4996 93.9118 21.3047V21.6006C93.9118 21.8621 94.0404 21.8621 94.1391 21.8621C94.2377 21.8621 94.3363 21.8321 94.3363 21.6006V13.3982C94.3363 13.2009 94.2377 13.1366 94.1391 13.1366C94.0404 13.1366 93.9118 13.1709 93.9118 13.3982V13.7283C93.9118 15.4992 92.7284 17.3043 91.2191 17.3043H90.3015C90.1043 17.3043 90.0743 17.24 90.0743 17.1414V7.03519C90.0743 6.93658 90.1386 6.83796 90.3359 6.83796H92.141C95.1252 6.83796 96.6002 10.3153 96.6002 13.5654V13.9899C96.6002 14.2514 96.6988 14.2514 96.7975 14.2514C96.9304 14.2514 97.029 14.2214 97.029 13.9899V6.67502C97.029 6.51209 96.9604 6.44348 96.7632 6.44348H84.7918C84.5603 6.44348 84.496 6.5421 84.496 6.64072C84.496 6.70932 84.5303 6.80794 84.7918 6.80794H85.8723C86.1382 6.80794 86.2025 7.09951 86.2025 8.11999V27.9336C86.2025 28.9497 86.1382 29.2456 85.8723 29.2456H84.7918C84.5303 29.2456 84.496 29.3442 84.496 29.4085C84.496 29.5071 84.5603 29.6058 84.7918 29.6058H97.7493C97.9123 29.6058 97.9809 29.5414 97.9809 29.3742Z" fill="currentColor"/>
<path d="M113.62 29.374V20.88C113.62 20.6485 113.521 20.5842 113.388 20.5842C113.29 20.5842 113.191 20.6185 113.191 20.88V21.4374C113.191 26.1282 111.124 29.6399 108.041 29.6399C105.023 29.6399 104.727 26.8185 104.53 22.8824C104.367 19.6966 104.367 16.4851 104.53 13.2994C104.663 10.3494 104.598 6.41327 107.746 6.41327C110.044 6.41327 112.308 9.39753 112.308 14.1526V14.4828C112.308 14.7443 112.406 14.7786 112.535 14.7786C112.634 14.7786 112.732 14.71 112.732 14.4828V6.67482C112.732 6.41327 112.599 6.34466 112.505 6.34466C112.406 6.34466 112.308 6.37897 112.308 6.67482V6.90636C112.308 7.49378 111.716 7.16791 111.189 6.90636C110.404 6.5419 109.028 6.0531 107.746 6.0531C102.433 6.0531 99.839 11.3999 99.839 18.2217C99.839 23.4055 102.103 30 107.844 30C109.221 30 110.897 29.5412 112.012 29.0825C112.599 28.8509 113.191 28.5894 113.191 29.1468V29.374C113.191 29.6399 113.29 29.7042 113.388 29.7042C113.487 29.7042 113.62 29.6399 113.62 29.374Z" fill="currentColor"/>
<path d="M131.135 14.4487V6.67502C131.135 6.51209 131.07 6.44348 130.873 6.44348H115.489C115.326 6.44348 115.227 6.51209 115.227 6.67502V14.4487C115.227 14.6802 115.356 14.7102 115.454 14.7102C115.553 14.7102 115.652 14.7102 115.652 14.4487V13.7926C115.652 10.3839 117.097 6.83796 119.982 6.83796H120.968C121.166 6.83796 121.264 6.93658 121.264 7.03519V27.9336C121.264 28.9497 121.196 29.2456 120.934 29.2456H119.785C119.558 29.2456 119.523 29.3442 119.523 29.4085C119.523 29.5071 119.558 29.6058 119.785 29.6058H126.577C126.808 29.6058 126.873 29.5071 126.873 29.4085C126.873 29.3442 126.838 29.2456 126.577 29.2456H125.462C125.166 29.2456 125.132 28.9497 125.132 27.9336V7.03519C125.132 6.93658 125.2 6.83796 125.428 6.83796H126.414C129.265 6.83796 130.71 10.3839 130.71 13.7926V14.4487C130.71 14.7102 130.809 14.7102 130.942 14.7102C131.04 14.7102 131.135 14.6802 131.135 14.4487Z" fill="currentColor"/>
<path d="M147.811 29.4085C147.811 29.3442 147.811 29.2456 147.549 29.2456H147.125C146.696 29.2456 146.567 29.0483 146.237 27.8006L140.757 6.51205C140.693 6.37914 140.659 6.31482 140.496 6.31482H138.498C138.331 6.31482 138.232 6.37914 138.232 6.51205L134.459 23.0112C133.215 28.5552 132.426 29.2456 131.638 29.2456H131.543C131.312 29.2456 131.277 29.3442 131.277 29.4085C131.277 29.5071 131.312 29.6057 131.543 29.6057H136.624C136.856 29.6057 136.89 29.5071 136.89 29.4085C136.89 29.3442 136.856 29.2456 136.624 29.2456H136.101C134.266 29.2456 134.167 26.7501 134.922 23.2428L135.381 21.1075C135.411 20.9788 135.445 20.9102 135.608 20.9102H140.269C140.466 20.9102 140.466 21.0088 140.496 21.1075L142.104 27.8006C142.434 29.0483 142.301 29.2456 141.842 29.2456H140.925C140.659 29.2456 140.629 29.3442 140.629 29.4085C140.629 29.5071 140.693 29.6057 140.925 29.6057H147.549C147.781 29.6057 147.811 29.5071 147.811 29.4085ZM140.269 20.2242C140.299 20.3528 140.234 20.4857 140.037 20.4857H135.805C135.608 20.4857 135.544 20.3871 135.544 20.2885L137.773 10.118H137.842L140.269 20.2242Z" fill="currentColor"/>
<path d="M164.16 17.8617C164.16 11.6959 161.373 6.44348 156.189 6.44348H148.381C148.15 6.44348 148.085 6.5421 148.085 6.64072C148.085 6.70932 148.12 6.80794 148.381 6.80794H149.462C149.728 6.80794 149.792 7.09951 149.792 8.11999V27.9336C149.792 28.9497 149.728 29.2456 149.462 29.2456H148.381C148.12 29.2456 148.085 29.3442 148.085 29.4085C148.085 29.5071 148.15 29.6058 148.381 29.6058H156.189C161.536 29.6058 164.16 24.5548 164.16 17.8617ZM159.469 22.6168C159.306 25.7339 159.208 29.2113 156.189 29.2113H153.891C153.694 29.2113 153.664 29.1127 153.664 29.0141V7.03519C153.664 6.93658 153.728 6.83796 153.925 6.83796H156.121C158.976 6.83796 159.306 10.1524 159.469 13.2352C159.632 16.3524 159.632 19.4996 159.469 22.6168Z" fill="currentColor"/>
<path d="M181.908 17.9258C181.908 11.5628 179.151 6.0531 173.938 6.0531C168.522 6.0531 165.997 11.5971 165.997 18.123C165.997 24.486 168.754 30 173.938 30C179.349 30 181.908 24.456 181.908 17.9258ZM177.183 22.7495C177.055 25.4722 177.252 29.6399 173.869 29.6399C170.885 29.6399 170.82 25.4379 170.687 22.9124C170.525 19.7309 170.525 16.4851 170.687 13.2994C170.82 10.5766 170.623 6.41327 174.002 6.41327C176.986 6.41327 177.055 10.5767 177.183 13.1064C177.346 16.2879 177.346 19.568 177.183 22.7495Z" fill="currentColor"/>
<path d="M199.066 27.9979C198.868 27.9636 198.804 28.0965 198.77 28.2594C198.607 28.8168 198.212 29.3742 197.655 29.3742C196.836 29.3742 196.836 28.5252 196.836 27.672C196.836 26.6515 196.836 25.0479 196.836 23.7659C196.836 19.5982 194.409 17.7974 191.785 17.4672V17.4329C194.508 17.1714 196.703 14.9074 196.703 12.0561C196.703 7.95276 193.753 6.44348 190.996 6.44348H183.025C182.794 6.44348 182.729 6.5421 182.729 6.64072C182.729 6.70932 182.764 6.80794 183.025 6.80794H184.106C184.372 6.80794 184.436 7.09951 184.436 8.11999V27.9336C184.436 28.9497 184.372 29.2456 184.106 29.2456H183.025C182.764 29.2456 182.729 29.3442 182.729 29.4085C182.729 29.5071 182.794 29.6058 183.025 29.6058H189.684C189.946 29.6058 189.98 29.5071 189.98 29.4085C189.98 29.3442 189.946 29.2456 189.684 29.2456H188.634C188.338 29.2456 188.308 28.9497 188.308 27.9336V17.8617C188.308 17.7288 188.372 17.6301 188.604 17.6301H190.404C191.948 17.6301 192.964 18.3848 192.998 21.4033C193.028 23.0455 192.964 24.3576 192.964 26.0298C192.964 28.328 194.375 30.0002 196.772 30.0002C198.148 30.0002 198.903 29.3099 199.199 28.358C199.228 28.1951 199.263 28.0322 199.066 27.9979ZM192.93 12.1204C192.93 15.9579 192.244 17.27 190.537 17.27H188.569C188.338 17.27 188.308 17.1714 188.308 17.0727V7.06949C188.308 6.93657 188.372 6.83795 188.604 6.83795H190.503C192.111 6.83795 192.93 8.38153 192.93 12.1204Z" fill="currentColor"/>
<path d="M0.275146 1.94446H199.385" stroke="currentColor" stroke-width="3.88927" stroke-miterlimit="10"/>
</g>
<defs>
<clipPath id="clip0_3182_449">
<rect width="199.11" height="30" fill="none" transform="translate(0.275146)"/>
</clipPath>
</defs>
</svg>
