<svg width="165" height="30" viewBox="0 0 165 30" fill="none" xmlns="http://www.w3.org/2000/svg">
<g clip-path="url(#clip0_3182_445)">
<path fill-rule="evenodd" clip-rule="evenodd" d="M153.05 27.0138C154.975 26.1286 156.468 21.2092 156.468 15.0017C156.468 8.173 154.686 2.63515 152.487 2.63515C150.286 2.63515 148.505 8.17437 148.505 15.0017C148.505 21.829 150.286 27.3654 152.487 27.3654C152.608 27.3654 152.716 27.2716 152.824 27.1773C152.898 27.1133 152.971 27.0491 153.05 27.0138ZM152.487 0.396484C159.222 0.396484 164.681 6.93474 164.681 15.0016L164.681 15.0017C164.681 23.0672 159.222 29.604 152.487 29.604C145.749 29.604 140.29 23.0686 140.29 15.0017C140.29 6.93473 145.75 0.396484 152.487 0.396484ZM129.087 14.5931H124.65L124.646 4.42774H128.555C130.575 4.42774 132.29 6.88056 132.29 9.33444C132.29 11.9639 130.895 14.5931 129.087 14.5931ZM124.655 29.3163V18.8079H124.655L131.046 18.7995C134.093 18.7954 138.154 15.1198 138.154 10.0378C138.154 4.85446 135.137 0.396484 130.511 0.396484H117.714V29.3163H124.655ZM91.9139 29.3317H96.1797V14.9614L101.871 29.3317H102.757L108.266 14.0803V29.3317H115.198V0.396484H108.62L103.289 14.6084L96.1797 0.396484H91.9139V29.3317ZM89.8518 0.396484H74.1761V29.3315H89.8518V25.8643H80.4108V12.5239H87.3568V9.23139H80.4108V4.20829H89.8518V0.396484ZM70.7197 0.396484H64.5009V29.3286H70.7197V0.396484ZM61.7221 0.396484H41.9256V4.22914H48.6403V29.3317H55.3591V4.40425L61.7221 4.41716V0.396484ZM25.6756 0.396484H19.3501V29.3315H34.813V25.8643H25.6756V0.396484ZM15.6384 0.396545H6.10352e-05V29.3315H15.6384V25.8643H6.32299V12.524H13.1779V9.05961H6.3231V4.20836H15.6384V0.396545Z" fill="currentColor"/>
</g>
<defs>
<clipPath id="clip0_3182_445">
<rect width="164.681" height="30" fill="none"/>
</clipPath>
</defs>
</svg>
