<svg width="85" height="90" viewBox="0 0 85 90" fill="none" xmlns="http://www.w3.org/2000/svg">
<g clip-path="url(#clip0_3182_423)">
<path d="M3.38622 89.922C1.94072 89.68 0.950746 88.9067 0.461066 87.6371C0.216393 87.0027 0.202909 86.4937 0.202909 77.8919V68.8161L0.515273 68.0573C0.687072 67.6399 1.05281 67.085 1.32803 66.8241C2.14665 66.048 2.78409 65.8708 5.01422 65.7994C7.96682 65.7049 9.3304 66.1429 10.0734 67.4246C10.5916 68.3186 10.7192 69.348 10.6741 72.2703L10.6333 74.9118H8.94008H7.24683L7.20827 72.2703C7.17462 69.9649 7.13845 69.5879 6.92395 69.307C6.44043 68.674 4.54015 68.6684 4.02965 69.2985C3.8096 69.5701 3.7926 70.1916 3.7926 77.9648V86.3385L4.14952 86.6192C4.43666 86.8451 4.69999 86.9 5.49656 86.9C6.34767 86.9 6.54006 86.8541 6.86676 86.5733L7.24683 86.2466L7.29001 83.1868L7.33318 80.127H9.02508H10.717L10.6752 83.8217L10.6333 87.5165L10.1856 88.2138C9.26774 89.6434 8.2536 90.0266 5.4663 89.9971C4.50851 89.9869 3.57248 89.9531 3.38622 89.922ZM53.1362 89.8795C51.8136 89.6028 50.9576 88.8926 50.5271 87.7149C50.275 87.0251 50.2614 86.5575 50.2435 77.9505C50.2227 67.9616 50.209 68.1402 51.0823 67.0807C51.9409 66.0391 53.2358 65.701 55.97 65.8047C58.5839 65.9038 59.3188 66.2075 60.1006 67.5118C60.6384 68.409 60.7147 69.0774 60.6596 72.4057L60.6181 74.9118H58.9248H57.2316L57.1638 72.1732C57.1059 69.8286 57.0628 69.4013 56.8645 69.2033C56.5849 68.9242 55.388 68.7497 54.7459 68.8945C53.7913 69.1098 53.8524 68.5701 53.7773 77.4564C53.7401 81.8681 53.7523 85.691 53.8045 85.9517C53.9635 86.7461 54.3339 86.9327 55.6444 86.8787C57.3184 86.8098 57.2807 86.8925 57.3286 83.1748L57.367 80.1947L59.0361 80.1566L60.7053 80.1185L60.6617 83.814C60.6205 87.2998 60.6014 87.5403 60.3252 88.0514C59.9354 88.7724 59.2638 89.3784 58.5184 89.6817C58.0355 89.8781 57.4727 89.9369 55.8092 89.9646C54.6544 89.9838 53.4516 89.9455 53.1362 89.8795ZM65.7655 89.8251C64.3845 89.4838 63.6077 88.8039 63.1729 87.5558C62.937 86.8786 62.9209 86.2596 62.9209 77.8919C62.9209 67.7715 62.8903 68.0875 63.981 66.9353C64.8203 66.0488 65.4051 65.8739 67.7826 65.798C70.6166 65.7075 71.804 66.0078 72.7149 67.0452C73.6106 68.0653 73.6099 68.0582 73.662 77.2146C73.7098 85.6255 73.6558 86.8711 73.1947 87.9836C72.8109 88.91 72.048 89.4933 70.7776 89.8318C69.9239 90.0593 66.6957 90.0551 65.7655 89.8251ZM69.5764 86.6599C69.7354 86.5312 69.9335 86.2927 70.0167 86.13C70.2203 85.7319 70.2281 70.5278 70.0251 69.7969C69.8234 69.0709 69.4022 68.8439 68.2562 68.8439C67.0095 68.8439 66.6201 69.1081 66.4789 70.0497C66.4243 70.4143 66.3938 74.2076 66.4112 78.4794L66.4428 86.2462L66.8229 86.5731C67.1543 86.8581 67.3364 86.8996 68.2452 86.897C69.0276 86.8947 69.3596 86.8356 69.5764 86.6599ZM12.0557 89.6404C12.0557 89.5831 12.3015 87.8306 12.6019 85.746C12.9024 83.6613 13.2966 80.8585 13.478 79.5174C13.6594 78.1763 13.9018 76.4695 14.0167 75.7245C14.1315 74.9795 14.3156 73.6994 14.4256 72.8799C14.6729 71.0384 15.0075 68.7851 15.1781 67.8114C15.2488 67.4078 15.3067 66.844 15.3067 66.5584C15.3067 66.2728 15.3524 66.0339 15.4083 66.0276C16.0572 65.9538 20.0908 65.999 20.1412 66.0806C20.2179 66.2048 20.3576 67.0717 20.6476 69.2224C20.7581 70.042 20.9079 71.1087 20.9805 71.593C21.5052 75.0942 22.269 80.3854 22.4886 82.0411C22.6332 83.1312 22.8442 84.5637 22.9575 85.2244C23.148 86.335 23.5698 89.3757 23.5698 89.6385C23.5698 89.7013 22.7955 89.7357 21.8492 89.7148L20.1287 89.6769L19.9585 88.5255C19.8649 87.8922 19.7858 87.1577 19.7826 86.8932C19.7736 86.1341 19.6493 86.0872 17.6468 86.0872C15.5424 86.0872 15.6745 85.982 15.5201 87.7805C15.4689 88.3765 15.3932 89.0622 15.3518 89.3044L15.2765 89.7446H13.6661C12.7804 89.7446 12.0557 89.6977 12.0557 89.6404ZM19.1576 82.8519C19.1983 82.7861 19.1705 82.2832 19.0958 81.7344C19.0212 81.1856 18.8713 79.9441 18.7627 78.9756C18.4678 76.3434 17.8811 71.8293 17.7989 71.5591C17.6318 71.0103 17.5133 71.4365 17.2904 73.3878C17.1606 74.524 16.9657 76.1241 16.8573 76.9437C16.749 77.7632 16.6003 78.9823 16.527 79.6529C16.4537 80.3234 16.3702 80.9939 16.3414 81.1429C16.3127 81.2919 16.2466 81.7643 16.1945 82.1927L16.1 82.9716H17.5918C18.4123 82.9716 19.1169 82.9178 19.1576 82.8519ZM25.3639 77.858L25.3985 65.9714L28.8855 66.0012C33.0765 66.0369 33.5649 66.1328 34.5432 67.1111C35.5244 68.0923 35.6544 68.8109 35.6007 72.9583C35.5608 76.0504 35.5381 76.3094 35.254 76.9251C34.9809 77.5171 34.228 78.3583 33.9663 78.3638C33.6994 78.3695 33.9097 78.7581 34.2577 78.9023C34.7676 79.1135 35.155 79.5335 35.416 80.1583C35.5911 80.5774 35.6257 81.4094 35.6257 85.2064V89.7527L33.8986 89.7148L32.1715 89.6769L32.1037 85.319L32.036 80.9612L31.7076 80.6118C31.4002 80.2847 31.2986 80.2624 30.116 80.2624H28.8527V85.0035V89.7446H27.091H25.3293L25.3639 77.858ZM31.2749 76.9967C32.0373 76.7309 32.1037 76.4171 32.1037 73.083C32.1037 69.103 32.1317 69.1567 30.0448 69.1223L28.9204 69.1038L28.8846 73.1253L28.8487 77.1468H29.8464C30.3952 77.1468 31.038 77.0793 31.2749 76.9967ZM37.2545 89.5076C37.2563 89.3772 37.3102 89.0267 37.3742 88.7287C37.4382 88.4307 37.591 87.4858 37.7138 86.629C37.8365 85.7723 38.0623 84.2179 38.2155 83.1748C38.3688 82.1318 38.6369 80.2116 38.8113 78.9078C39.2772 75.425 39.9269 70.8877 40.1594 69.4934C40.2712 68.8228 40.4255 67.7907 40.5023 67.1998C40.579 66.6088 40.6645 66.1026 40.6922 66.075C40.7349 66.0323 44.1608 65.9959 45.0643 66.0285C45.3103 66.0374 45.3821 66.1574 45.4956 66.7503C45.7289 67.9678 45.9118 69.1484 46.1933 71.2543C46.3426 72.3719 46.5576 73.8653 46.6709 74.5731C46.7842 75.2809 46.9353 76.3476 47.0066 76.9437C47.0779 77.5397 47.2292 78.6064 47.3428 79.3142C47.4564 80.022 47.6658 81.485 47.8081 82.5652C47.9504 83.6455 48.1936 85.2811 48.3484 86.1999C48.5033 87.1187 48.6692 88.2921 48.7171 88.8075L48.8042 89.7446H47.0941C45.1041 89.7446 45.3382 89.9879 45.0732 87.645L44.9047 86.1549H42.9405H40.9764L40.8698 87.0354C40.8112 87.5197 40.699 88.3274 40.6205 88.8303L40.4778 89.7446H38.8645C37.4171 89.7446 37.2516 89.7203 37.2545 89.5076ZM44.3919 82.3282C44.1843 80.2667 43.8544 77.4418 43.6841 76.2664C43.4779 74.8433 43.076 71.6276 43.076 71.4006C43.076 71.3242 43.0125 71.3314 42.9263 71.4176C42.844 71.4999 42.69 72.2588 42.5842 73.104C42.4783 73.9493 42.3313 75.098 42.2573 75.6568C42.1834 76.2156 42.0308 77.4652 41.9181 78.4337C41.8055 79.4023 41.6327 80.7738 41.5341 81.4816C41.4355 82.1893 41.38 82.8142 41.4107 82.87C41.4414 82.9259 42.1393 82.9716 42.9616 82.9716H44.4567L44.3919 82.3282ZM76.6222 89.3721C76.5322 88.8891 76.5249 67.0692 76.6145 66.4455L76.6826 65.9714L78.3358 65.9767L79.9889 65.9821L80.0566 76.2717L80.1243 86.5613L82.1224 86.5988L84.1204 86.6363V88.1905V89.7446H80.406H76.6916L76.6222 89.3721ZM9.63722 61.5351C9.37312 61.2471 7.18861 58.5371 6.54009 57.6929C5.10808 55.8289 1.65835 51.623 1.5253 51.579C1.39448 51.5356 1.34983 52.6313 1.32211 56.5646L1.28659 61.6058L0.860681 61.6524C0.6167 61.6791 0.370199 61.6212 0.283597 61.5168C0.176024 61.3872 0.142587 59.5419 0.167665 55.1191L0.202909 48.9034L0.558303 48.8622C0.837809 48.8298 0.996898 48.9334 1.30333 49.3475C1.51763 49.6371 1.94644 50.1737 2.25624 50.5401C2.56604 50.9065 4.0821 52.7911 5.62526 54.7282C8.62092 58.4886 9.02294 58.9575 9.14567 58.8348C9.18876 58.7917 9.21971 56.5867 9.21445 53.9349L9.20489 49.1133L9.53588 49.0302C9.71793 48.9846 9.97837 48.9686 10.1146 48.9949C10.3498 49.0401 10.3642 49.3616 10.3976 55.3308C10.4328 61.61 10.4196 61.8279 10.0041 61.8378C9.95606 61.8389 9.79095 61.7027 9.63722 61.5351ZM19.0996 61.6613C18.6153 61.5687 17.8339 61.286 17.3631 61.033C13.0789 58.7307 12.7918 52.5185 16.8485 49.8965C19.5172 48.1717 23.0112 48.5755 25.1621 50.8574C27.1123 52.9263 27.4973 56.159 26.0792 58.558C24.6298 61.01 21.9429 62.2046 19.0996 61.6613ZM21.4083 60.5669C23.2159 60.1345 24.494 59.1628 25.2275 57.6634C25.6449 56.8102 25.6694 56.6775 25.6692 55.2701C25.6691 53.8384 25.6513 53.7474 25.2176 52.9475C24.4693 51.5674 23.5932 50.7989 22.1395 50.2472C20.2536 49.5316 18.1438 50.0578 16.6759 51.6098C15.8767 52.455 15.2476 53.7106 15.1138 54.7282C14.9162 56.231 15.6476 58.1394 16.8277 59.2005C17.7153 59.9985 18.3637 60.3277 19.4899 60.5521C20.6275 60.7788 20.526 60.778 21.4083 60.5669ZM49.6697 61.6915C48.814 61.5664 47.5114 60.966 46.6976 60.3215C45.9513 59.7304 45.0116 58.3403 44.701 57.3679C44.3329 56.2159 44.3344 54.4552 44.7043 53.2972C45.6012 50.4896 48.2062 48.7071 51.1793 48.8666C52.5458 48.9398 53.6384 49.2909 54.5629 49.9537C55.3043 50.4853 55.4064 50.8253 54.9526 51.2516L54.6264 51.558L54.211 51.2084C53.9826 51.0162 53.3801 50.6679 52.8721 50.4345C52.086 50.0732 51.7869 50.0094 50.8617 50.0054C49.9149 50.0013 49.6545 50.057 48.8416 50.4373C47.2079 51.2018 46.1525 52.5922 45.7684 54.4859C45.6208 55.2136 45.6292 55.4608 45.8309 56.3164C46.509 59.1926 48.7603 60.8559 51.5683 60.5552C52.2474 60.4825 52.6304 60.3345 53.5148 59.8029C54.555 59.1778 54.6331 59.1526 54.9302 59.3473C55.4262 59.6723 55.4171 59.876 54.8841 60.3745C54.1949 61.019 53.0221 61.5617 51.9986 61.7097C51.0103 61.8526 50.758 61.8506 49.6697 61.6915ZM79.1565 61.6991C78.1439 61.4987 76.2637 60.4124 76.2637 60.0279C76.2637 59.7638 76.9042 59.2208 77.1034 59.316C77.2004 59.3623 77.5749 59.6131 77.9357 59.8735C78.6365 60.3791 79.693 60.7562 80.4086 60.7562C81.4473 60.7562 82.7483 59.8033 82.7808 59.0187C82.8431 57.5131 82.4229 57.0548 79.8496 55.8217C77.8308 54.8542 77.1641 54.3334 76.7177 53.3746C76.3143 52.5084 76.3157 51.7414 76.7224 50.8218C77.6058 48.8242 80.2093 48.25 82.8756 49.4646C83.4108 49.7085 83.531 49.9574 83.3283 50.4021C83.1341 50.8285 82.8226 50.819 81.9373 50.3596C81.325 50.0419 81.0559 49.9871 80.1087 49.9871C79.0699 49.9871 78.9644 50.0142 78.4775 50.4059C77.8551 50.9067 77.538 51.6837 77.6696 52.3855C77.8115 53.1418 78.67 53.9249 80.0378 54.5459C82.7108 55.7592 83.4125 56.2576 83.9028 57.2907C84.2966 58.1206 84.1671 59.4296 83.6116 60.2353C82.7525 61.4813 80.9871 62.0614 79.1565 61.6991ZM32.1673 61.5351C32.1325 61.442 32.0887 58.836 32.07 55.7442L32.036 50.1226L30.3428 50.0548L28.6495 49.9871L28.6048 49.5954C28.5794 49.373 28.6379 49.1544 28.7403 49.0895C28.8394 49.0267 30.6272 48.9753 32.7133 48.9753C34.7994 48.9753 36.5873 49.0267 36.6864 49.0895C36.7887 49.1544 36.8472 49.373 36.8218 49.5954L36.7771 49.9871L35.0839 50.0548L33.3906 50.1226L33.3552 55.8048C33.3282 60.1439 33.2802 61.5123 33.152 61.5937C32.8886 61.761 32.2374 61.7223 32.1673 61.5351ZM39.7131 61.5384C39.596 61.4213 39.554 59.764 39.554 55.2575C39.554 49.8001 39.5773 49.1267 39.7683 49.0534C40.1076 48.9232 40.6133 48.9576 40.7122 49.1175C40.8656 49.3657 40.8604 61.4419 40.7069 61.5547C40.4829 61.7192 39.8842 61.7094 39.7131 61.5384ZM58.9587 61.616C58.8267 61.5617 58.7894 60.1778 58.7894 55.341C58.7894 49.8075 58.8126 49.1267 59.0036 49.0534C59.3463 48.9219 59.849 48.9582 59.9501 49.1217C60.0509 49.2848 60.0603 61.4268 59.9597 61.5275C59.8596 61.6276 59.1413 61.6911 58.9587 61.616ZM62.8751 61.5277C62.7162 61.3362 62.8546 60.9566 63.8724 58.792C64.0475 58.4195 64.5955 57.2004 65.09 56.0828C65.5846 54.9653 66.1328 53.7461 66.3084 53.3736C66.4839 53.0011 66.9674 51.9344 67.3829 51.0031C68.3382 48.8614 68.3125 48.9034 68.6658 48.9034C68.9179 48.9034 69.1059 49.2205 69.9104 51.0031C70.4316 52.1579 70.972 53.3465 71.1114 53.6445C71.2507 53.9425 71.6496 54.8264 71.9978 55.6087C72.8173 57.4499 72.8707 57.5691 73.6732 59.3469C74.401 60.9593 74.6009 61.561 74.4158 61.5824C74.3519 61.5898 74.0883 61.605 73.8301 61.6163L73.3606 61.6367L72.677 60.1224C72.3011 59.2896 71.9453 58.56 71.8864 58.5011C71.8275 58.4422 70.3396 58.3921 68.5799 58.3898L65.3806 58.3856L64.9261 59.4016C63.9798 61.5167 63.9043 61.6333 63.4512 61.6775C63.2122 61.7008 62.9656 61.6367 62.8751 61.5277ZM71.2499 57.2004C71.2473 56.7481 68.8736 51.4835 68.6521 51.4387C68.4431 51.3963 68.3478 51.5937 66.508 55.8796C66.2681 56.4384 66.0129 56.9691 65.9409 57.059C65.6345 57.4413 66.0178 57.5051 68.6182 57.5051H71.2517L71.2499 57.2004ZM29.7332 43.6614C26.6889 43.3231 23.084 42.7541 22.3506 42.4961C22.1351 42.4203 23.3449 42.2381 26.5499 41.8638C27.6302 41.7376 29.1846 41.5136 30.0041 41.366C30.8236 41.2183 31.8599 41.0427 32.3069 40.9757C32.7539 40.9088 33.5464 40.76 34.0679 40.6453C34.5894 40.5305 35.5647 40.3174 36.2353 40.1718C37.498 39.8975 40.7488 39.0692 42.8728 38.4805C46.0963 37.5871 52.1773 35.4434 54.3869 34.4215C54.7594 34.2493 55.2776 34.0289 55.5383 33.9318C56.4042 33.6093 61.1407 31.1515 62.3866 30.378C69.2418 26.1225 70.9497 22.1441 66.928 19.799C66.1011 19.3168 64.4521 18.672 63.5982 18.4969C63.3002 18.4358 62.4461 18.2612 61.7003 18.1089C60.1736 17.7972 57.9468 17.5444 56.7277 17.5444H55.914L55.9965 17.9847C56.2961 19.582 56.3706 20.6504 56.3008 22.3533C56.236 23.9358 56.1549 24.474 55.8106 25.6043C55.0763 28.0155 53.8607 30.068 52.1568 31.7739C50.6068 33.3258 50.0022 33.7535 47.9223 34.7695C44.3195 36.5295 39.3586 36.5661 35.677 34.86C33.0251 33.631 30.4395 31.2933 29.104 28.9172C28.8077 28.39 28.7885 28.3802 28.1836 28.4491C27.071 28.576 21.4288 28.7876 19.1608 28.7876C11.0511 28.7876 5.08207 27.6463 2.30254 25.5643C1.49569 24.9599 0.759231 24.1294 0.418167 23.4391C-0.0202384 22.5518 -0.141541 20.5026 0.187053 19.5348C1.16939 16.6414 4.29155 13.4683 8.66916 10.9145C9.22793 10.5885 9.8375 10.2276 10.0238 10.1125C11.2738 9.34017 16.5344 6.93214 18.6932 6.14413C23.0957 4.53709 25.5966 3.78851 30.3428 2.65709C31.8701 2.293 33.6683 1.89481 34.3388 1.77222C35.0094 1.64964 35.6799 1.51904 35.8289 1.482C35.9779 1.44496 37.1056 1.26393 38.3349 1.0797C45.9334 -0.0590549 53.061 -0.296043 59.8586 0.364054C61.64 0.537048 61.7468 0.721118 60.0754 0.737884C59.0675 0.748003 56.1475 1.05379 54.7933 1.29106C54.3463 1.36938 53.2795 1.55203 52.4227 1.69695C50.232 2.06749 48.5596 2.41647 46.598 2.91236C44.1297 3.53632 43.719 3.64889 41.9246 4.19328C41.0306 4.4645 40.0552 4.75114 39.7572 4.83025C39.4592 4.90937 39.0325 5.05152 38.809 5.14615C38.5855 5.24078 37.7321 5.54824 36.9126 5.82941C35.4599 6.3278 32.348 7.54987 31.2005 8.07259C30.8859 8.21591 30.5953 8.33317 30.5546 8.33317C30.3676 8.33317 25.3546 10.8659 23.8407 11.7252C18.9878 14.48 15.5351 17.5051 14.7202 19.7163C14.4116 20.5537 14.4266 21.7595 14.7534 22.3925C15.2222 23.3008 16.58 24.3755 17.897 24.8807C19.7922 25.6077 22.3651 26.2478 24.3148 26.4773C24.9853 26.5562 26.0419 26.6887 26.6628 26.7717C27.3163 26.8591 27.8422 26.8722 27.9114 26.8029C27.9807 26.7337 27.9141 26.3134 27.7532 25.8051C26.1486 20.7355 27.5846 14.9852 31.3982 11.2094C33.1108 9.51371 34.8226 8.4278 36.8448 7.75433C38.873 7.07889 39.1053 7.04619 41.8569 7.04887C44.4509 7.05139 44.5227 7.05921 45.8529 7.484C49.966 8.79741 53.1092 11.4356 54.8664 15.0494L55.4328 16.2143L56.3322 16.1314C56.8268 16.0858 58.4202 15.9894 59.873 15.9173C70.1729 15.4057 77.6572 16.429 81.3678 18.8561C83.7938 20.443 84.6785 22.319 84.2824 25.0367C83.9288 27.4629 81.9235 30.3128 79.1084 32.3898C77.9231 33.2643 76.9471 33.9351 76.86 33.9351C76.8158 33.9351 76.6171 34.0509 76.4184 34.1924C75.1844 35.071 70.7893 37.0777 67.3911 38.3139C64.3222 39.4304 58.3902 41.0876 56.1479 41.4549C55.8499 41.5037 55.4232 41.5983 55.1997 41.665C54.5249 41.8664 49.2162 42.7424 47.4785 42.939C45.0453 43.2143 41.9928 43.5236 40.1423 43.6824C38.2049 43.8486 31.2927 43.8347 29.7332 43.6614Z" fill="currentColor"/>
</g>
<defs>
<clipPath id="clip0_3182_423">
<rect width="84.3733" height="90" fill="none"/>
</clipPath>
</defs>
</svg>
