<svg width="90" height="70" viewBox="0 0 90 70" fill="none" xmlns="http://www.w3.org/2000/svg">
  <path fill-rule="evenodd" clip-rule="evenodd" d="M60.7804 38.655C61.0509 39.0913 65.6115 46.1155 79.0937 46.8121H85.0186V5.05854H74.7002V19.5386C74.7002 19.5386 71.6076 10.0361 61.2512 4.32516C59.5058 3.35904 53.356 0.807231 44.1477 0.729374L44.397 0.345541C44.397 0.345541 59.4879 -2.07833 69.6725 5.91332V0.396446H89.7704V51.4527L78.6179 51.4393C75.7578 51.4393 65.1563 50.4516 56.1928 41.1204C55.865 41.3021 42.9262 48.3619 29.9039 37.5839C23.6515 32.411 21.1136 20.9936 30.4014 12.9352C30.4014 12.9352 31.2295 12.2633 32.5238 11.4882C33.084 11.152 34.4503 10.5264 34.4503 10.5264C34.4503 10.5264 52.4507 1.15803 65.2002 17.724L60.6094 20.6196C60.6094 20.6196 56.723 13.6627 45.5669 13.3568C42.457 13.2723 29.6255 15.5066 30.2695 26.7304C30.3261 27.7548 31.4881 38.2624 47.0721 37.9467C50.0493 37.8872 57.068 36.627 61.0516 30.7734L65.581 33.3046C65.581 33.3046 63.8512 36.4719 60.7804 38.655ZM32.8533 11.0451C32.2749 11.3587 30.7817 12.353 30.7817 12.353C30.2137 11.7538 23.9643 5.40214 12.7638 4.73866H5.60818V45.9779H16.0855V31.275C16.0855 31.275 23.0125 50.2126 46.6417 49.9278L46.6666 50.3348C46.6666 50.3348 30.8692 52.8757 20.9223 44.4076V50.5626H0.969013L0.967651 0.115761L12.3924 0.102583C12.3924 0.102583 26.8613 0.106886 34.7938 9.97824C34.7938 9.97824 33.3901 10.7547 32.8533 11.0451ZM15.7547 69.95L14.2552 67.0138H10.5181H10.0336C7.34219 67.0138 5.15062 66.8184 3.45916 66.4268V70H0.967651V61.2705C0.967651 60.1301 1.18288 58.5987 1.61353 56.6758C4.62764 55.91 7.59577 55.527 10.5181 55.527L10.6335 55.5017L10.7484 55.527C13.6553 55.527 16.6235 55.91 19.6528 56.6758C20.0837 58.5987 20.2989 60.1301 20.2989 61.2705C20.2989 62.4107 20.0837 63.9422 19.6528 65.8656L17.3923 66.4268L16.5618 66.7079L18.1073 69.95H15.7547ZM17.8536 61.424C17.8228 60.7091 17.5922 59.8411 17.1612 58.8199C14.8396 58.3774 12.74 58.1564 10.864 58.1564H10.4025C8.5263 58.1564 6.42709 58.3774 4.10484 58.8199C3.8896 59.3305 3.72055 59.8069 3.5973 60.2493C3.4746 60.6749 3.4128 61.0661 3.4128 61.424V63.5681C6.19642 64.1127 8.5263 64.3849 10.4025 64.3849H10.864C12.74 64.3849 14.8396 64.1637 17.1612 63.721C17.5922 62.7004 17.8228 61.9346 17.8536 61.424ZM22.7152 62.9762H39.4397L38.9093 61.831C36.5871 61.3899 34.4876 61.1696 32.6114 61.1696H32.1735V58.5221L32.496 58.5479C35.4029 58.5479 38.3708 58.9299 41.4004 59.6931C41.8313 61.6103 42.0464 63.1375 42.0464 64.2739C42.0464 65.4112 41.8313 66.9383 41.4004 68.8554C38.3708 69.619 35.4029 70 32.496 70H32.2884C29.3665 70 26.3983 69.619 23.384 68.8554L22.7152 65.9539V62.9762ZM39.4397 65.6742V65.623H25.8756V66.7174C28.1978 67.159 30.2968 67.3793 32.1735 67.3793H32.6114C34.4876 67.3793 36.5871 67.159 38.9093 66.7174L39.4397 65.6742ZM53.5706 70H53.409C50.4872 70 47.5186 69.6172 44.5042 68.8502C44.074 66.924 43.8588 65.3895 43.8588 64.2469C43.8588 63.105 44.074 61.5707 44.5042 59.6445C47.5186 58.8775 50.4872 58.4935 53.409 58.4935H53.6397C56.5613 58.4764 58.9148 58.6731 60.6984 59.0814V55.5017H63.1899V64.2469C63.1899 65.3895 62.9747 66.924 62.5445 68.8502C59.5147 69.6172 56.5464 70 53.6397 70H53.5706ZM46.304 64.0936C46.3188 64.8097 46.5501 65.6789 46.9958 66.702C49.3183 67.1455 51.4172 67.367 53.2935 67.367H53.7551C55.6309 67.367 57.7304 67.1455 60.0529 66.702C60.4834 65.6789 60.7138 64.8097 60.7447 64.0936V61.9458C57.9613 61.4004 55.6309 61.1276 53.7551 61.1276H53.2935C51.4172 61.1276 49.3183 61.349 46.9958 61.7922C46.5501 62.8152 46.3188 63.5824 46.304 64.0936ZM65.6064 58.1324V55.5017H68.0228V58.1324H65.6064ZM65.6276 70V60.5581H68.0006V70H65.6276ZM80.1045 70H79.9894C77.0675 70 74.099 69.6181 71.0847 68.8531C70.6543 66.9315 70.439 65.4008 70.439 64.2612C70.439 63.1222 70.6543 61.5917 71.0847 59.6703C74.099 58.9051 77.0675 58.5221 79.9894 58.5221H80.2195C83.1263 58.5221 86.0949 58.9051 89.1243 59.6703C89.5551 61.5917 89.7704 63.1222 89.7704 64.2612C89.7704 65.4008 89.5551 66.9315 89.1243 68.8531C86.0949 69.6181 83.1263 70 80.2195 70H80.1045ZM87.3245 64.1084C87.2943 63.5983 87.0635 62.8331 86.6329 61.8126C84.3108 61.3705 82.2113 61.1498 80.3349 61.1498H79.874C77.9976 61.1498 75.8984 61.3705 73.5762 61.8126C73.1304 62.8331 72.8992 63.5983 72.8841 64.1084C72.8992 64.8225 73.1304 65.6896 73.5762 66.7102C75.8984 67.1526 77.9976 67.3736 79.874 67.3736H80.3349C82.2113 67.3736 84.3108 67.1526 86.6329 66.7102C87.0635 65.6896 87.2943 64.8225 87.3245 64.1084Z" fill="currentColor"/>
</svg>